<svg xmlns="http://www.w3.org/2000/svg" width="53" height="64" viewBox="0 0 53 64"><g><g><path fill="#fff" d="M35.333 63.985l-17.667-8.647L0 63.985V25.94l7.25-3.55a19.454 19.454 0 0 1-.184-2.571c0-10.947 9.096-19.821 20.317-19.821 11.206 0 20.29 8.901 20.314 19.888L53 17.293v38.045zM18.55 54.042l15.9 7.782V44.171l-7.067 9.45-8.833-11.906zM1.766 26.804v34.59l15.017-7.352V39.335l-6.096-8.217h.002a19.475 19.475 0 0 1-3.16-7.134zM27.383 1.73v-.009c-10.245 0-18.55 8.103-18.55 18.098 0 3.924 1.281 7.555 3.456 10.52l15.094 20.353 15.094-20.184a17.89 17.89 0 0 0 3.456-10.578c0-10.05-8.305-18.2-18.55-18.2zm23.85 18.156l-3.613 1.757a19.587 19.587 0 0 1-3.543 9.648l.002.002-7.863 10.517v20.014l15.017-7.35zm-23.85 10.376c-5.854 0-10.6-4.644-10.6-10.376 0-5.73 4.746-10.377 10.6-10.377 5.854 0 10.6 4.646 10.6 10.377 0 5.732-4.746 10.376-10.6 10.376zm0-19.036c-4.887 0-8.848 3.877-8.848 8.66 0 4.782 3.961 8.66 8.848 8.66 4.887 0 8.848-3.878 8.848-8.66 0-4.783-3.961-8.66-8.848-8.66z"/></g></g></svg>