<svg xmlns="http://www.w3.org/2000/svg" width="66" height="60" viewBox="0 0 66 60"><g><g><path fill="#8DD312" d="M65.765 26.35c-.518 1.916-1.852 3.37-3.524 4.164.335 1.413.524 2.87.524 4.364 0 7.363-4.28 13.894-10.9 18.083l3.055 5.395c.29.512.118 1.168-.385 1.465a1.043 1.043 0 0 1-1.437-.391s-1.71-3.022-3.056-5.395c-4.415 2.358-9.684 3.74-15.356 3.74-7.449 0-14.195-2.378-19.208-6.243l-4.619 7.92c-.304.522-.977.7-1.504.4a1.085 1.085 0 0 1-.403-1.49l4.823-8.271c-2.08-1.907-3.79-4.093-5.004-6.49H5.505c-3.04 0-5.505-2.44-5.505-5.45v-6.543c0-3.01 2.465-5.451 5.505-5.451h3.266c1.096-2.165 2.604-4.147 4.413-5.919-.04-.066-.086-.122-.126-.19-3.04-5.214-3.371-10.662-.738-12.167 2.585-1.479 7.06 1.396 10.1 6.434 3.704-1.483 7.856-2.332 12.266-2.332 12.742 0 23.486 6.926 26.918 16.41.964-.555 1.722-1.455 2.033-2.606.63-2.327-.764-4.715-3.114-5.34a1.09 1.09 0 0 1-.779-1.335 1.1 1.1 0 0 1 1.349-.771c3.525.934 5.616 4.522 4.672 8.01zm-31.08-12.187c-4.031 0-7.836.752-11.234 2.07 0 .004.002.004.002.005a29.01 29.01 0 0 0-2.01.866 22.472 22.472 0 0 0-.756-1.415c-2.432-4.174-5.685-6.824-7.265-5.92-1.58.902-.89 5.017 1.543 9.189.332.57.682 1.104 1.038 1.61-.365.307-.698.635-1.04.958-2.115 2-3.788 4.312-4.838 6.858-.404-.029-.837-.049-1.316-.049H7.708c-4.544 0-5.506 1.122-5.506 5.453v2.18c0 4.374 1.09 5.451 5.506 5.451h1.1c.48 0 .913-.016 1.317-.047 3.406 8.257 13.106 14.224 24.56 14.224 14.292 0 25.878-9.275 25.878-20.718 0-11.44-11.586-20.715-25.877-20.715zM18.72 28.335a2.19 2.19 0 0 1-2.202-2.179c0-1.203.986-2.18 2.202-2.18s2.202.977 2.202 2.18a2.19 2.19 0 0 1-2.202 2.18zm31.465-15.383c.281-.82.469-1.688.469-2.606 0-4.514-3.698-8.177-8.26-8.177-4.387 0-7.94 3.398-8.207 7.675-.749.02-1.498.04-2.233.103.214-5.532 4.8-9.957 10.44-9.957 5.778 0 10.462 4.637 10.462 10.356 0 1.268-.241 2.477-.662 3.599-.653-.35-1.322-.68-2.009-.993z"/></g></g></svg>