<svg xmlns="http://www.w3.org/2000/svg" width="59" height="60" viewBox="0 0 59 60"><g><g><path fill="#fff" d="M50.95 45.862v14.126l-12.207-7.011a27.168 27.168 0 0 1-7.293 1.01c-.038 0-.075 0-.112-.002a23.385 23.385 0 0 0 4.008-2.294c1.298-.197 2.636-.495 3.712-.955L49 56.625V44.934a22.949 22.949 0 0 0 1.88-1.947h.01c.063-.075 1.327-1.566 1.858-2.485A24.514 24.514 0 0 0 56.8 26.988c0-13.806-11.35-25-25.35-25a25.4 25.4 0 0 0-20.632 10.496 23.342 23.342 0 0 0-3.736 2.421A27.274 27.274 0 0 1 31.45-.01c15.077 0 27.3 12.086 27.3 26.998 0 7.351-2.98 14.006-7.8 18.874zm-7.8-12.825c0 11.735-9.604 21.048-21.45 21.048-1.99 0-4.026-.473-5.85-.982l-9.75 5.9V48.186C2.313 44.355.25 38.822.25 33.037c0-11.734 9.603-21.245 21.45-21.245 11.846 0 21.45 9.511 21.45 21.245zm-40.95.395c0 3.923.756 7.174 2.765 10.239.418.726 1.41 1.895 1.46 1.956h.009c.601.7 1.278 1.264 1.616 1.575v8.852l7.8-4.919c2.879.944 5.338.92 6.825.984 8.715 0 18.525-7.823 18.525-18.687 0-10.866-8.5-19.674-19.5-19.674S2.2 22.566 2.2 33.432z"/></g><g><path fill="#fff" d="M10.686 32.413a1 1 0 0 1 1.414 0l6.779 6.779 12.02-12.021a1 1 0 0 1 1.415 1.414L19.586 41.313a1 1 0 0 1-1.415 0l-7.485-7.485a1 1 0 0 1 0-1.415z"/></g></g></svg>