<svg xmlns="http://www.w3.org/2000/svg" width="66" height="54" viewBox="0 0 66 54"><g><g><path fill="#fff" d="M64 53.739H2c-1.105 0-2-.904-2-2.022V9.337C0 8.22.895 7.315 2 7.315h62c1.104 0 2 .906 2 2.022v42.38a2.01 2.01 0 0 1-2 2.022zM3 51.717h60c.552 0 1-.452 1-1.012V29.534H38a2.01 2.01 0 0 1-2 2.02h-6c-1.105 0-2-.904-2-2.02H2v21.17c0 .561.447 1.013 1 1.013zm33-23.196c0-.558-.448-1.011-1-1.011h-4c-.553 0-1 .453-1 1.011 0 .56.447 1.013 1 1.013h4c.552 0 1-.454 1-1.013zM63 9.337H3c-.553 0-1 .453-1 1.012v17.16h26a2.01 2.01 0 0 1 2-2.02h6c1.104 0 2 .905 2 2.02h26V10.35c0-.56-.448-1.012-1-1.012zM44 6.306h-.026c.015-.169.026-.336.026-.507C44 2.727 41.537.24 38.5.24h-11C24.462.24 22 2.727 22 5.8c0 .171.01.338.025.507H22v1.009h2v-1.01c0-2.232 1.79-4.043 4-4.043h10c2.209 0 4 1.81 4 4.044v1.009h2z"/></g></g></svg>