<svg width="35" height="55" viewBox="0 0 35 55" fill="none" xmlns="http://www.w3.org/2000/svg">
<path d="M33.1672 49.0264L28.4568 53.7802C28.303 53.9371 28.1199 54.0617 27.9181 54.1467C27.7162 54.2317 27.4997 54.2755 27.281 54.2755C27.0623 54.2755 26.8458 54.2317 26.644 54.1467C26.4421 54.0617 26.259 53.9371 26.1052 53.7802L6.8322 34.3292C5.27048 34.2058 3.80611 33.5149 2.71072 32.3847C1.61532 31.2545 0.963237 29.7617 0.875419 28.1833C0.787601 26.6048 1.27001 25.0477 2.23316 23.8009C3.19632 22.554 4.57485 21.7021 6.11306 21.403L26.1052 1.21888C26.259 1.06198 26.4421 0.937419 26.644 0.852411C26.8458 0.767403 27.0623 0.723633 27.281 0.723633C27.4997 0.723633 27.7162 0.767403 27.9181 0.852411C28.1199 0.937419 28.303 1.06198 28.4568 1.21888L33.1672 5.97277C33.3227 6.128 33.4461 6.31281 33.5303 6.5165C33.6145 6.72019 33.6579 6.93871 33.6579 7.15943C33.6579 7.38014 33.6145 7.59867 33.5303 7.80236C33.4461 8.00604 33.3227 8.19085 33.1672 8.34609L14.1962 27.4996L33.1672 46.653C33.3227 46.8083 33.4461 46.9931 33.5303 47.1968C33.6145 47.4004 33.6579 47.619 33.6579 47.8397C33.6579 48.0604 33.6145 48.2789 33.5303 48.4826C33.4461 48.6863 33.3227 48.8711 33.1672 49.0264Z" fill="#649B4B"/>
<path d="M33.1672 49.0264L28.4568 53.7802C28.303 53.9371 28.1199 54.0617 27.9181 54.1467C27.7162 54.2317 27.4997 54.2755 27.281 54.2755C27.0623 54.2755 26.8458 54.2317 26.644 54.1467C26.4421 54.0617 26.259 53.9371 26.1052 53.7802V53.7802L6.8322 34.3292C5.27048 34.2058 3.80611 33.5149 2.71072 32.3847C1.61532 31.2545 0.963237 29.7617 0.875419 28.1833C0.787601 26.6048 1.27001 25.0477 2.23316 23.8009C3.19632 22.554 4.57485 21.7021 6.11306 21.403L26.1052 1.21888C26.259 1.06198 26.4421 0.937419 26.644 0.852411C26.8458 0.767403 27.0623 0.723633 27.281 0.723633C27.4997 0.723633 27.7162 0.767403 27.9181 0.852411C28.1199 0.937419 28.303 1.06198 28.4568 1.21888L33.1672 5.97277C33.3227 6.128 33.4461 6.31281 33.5303 6.5165C33.6145 6.72019 33.6579 6.93871 33.6579 7.15943C33.6579 7.38014 33.6145 7.59867 33.5303 7.80236C33.4461 8.00604 33.3227 8.19085 33.1672 8.34609L14.1962 27.4996L33.1672 46.653C33.3227 46.8083 33.4461 46.9931 33.5303 47.1968C33.6145 47.4004 33.6579 47.619 33.6579 47.8397C33.6579 48.0604 33.6145 48.2789 33.5303 48.4826C33.4461 48.6863 33.3227 48.8711 33.1672 49.0264V49.0264Z" stroke="white" stroke-width="2" stroke-linecap="round" stroke-linejoin="round"/>
<path d="M7.30682 23.5153C8.41036 23.561 9.45365 24.0356 10.2185 24.8398C10.9833 25.644 11.4103 26.7155 11.4103 27.8301C11.4103 28.9448 10.9833 30.0163 10.2185 30.8205C9.45365 31.6247 8.41036 32.0992 7.30682 32.1449C6.73062 32.1688 6.1556 32.0748 5.61628 31.8688C5.07697 31.6627 4.5845 31.3487 4.16845 30.9457C3.75241 30.5427 3.42138 30.0589 3.19524 29.5235C2.96911 28.9881 2.85254 28.4121 2.85254 27.8301C2.85254 27.2481 2.96911 26.6721 3.19524 26.1367C3.42138 25.6014 3.75241 25.1176 4.16845 24.7146C4.5845 24.3116 5.07697 23.9976 5.61628 23.7915C6.1556 23.5854 6.73062 23.4915 7.30682 23.5153ZM13.3404 25.504C12.9769 24.5514 12.3972 23.698 11.6479 23.0123C10.8986 22.3267 10.0005 21.8278 9.02557 21.5557L27.2486 3.19336L31.3477 7.33034L13.3404 25.504ZM31.319 47.6695L27.2199 51.8064L9.55054 33.9376C10.4937 33.5843 11.3422 33.014 12.0288 32.2719C12.7153 31.5299 13.2211 30.6365 13.5058 29.6627L31.319 47.6695Z" fill="white"/>
</svg>
