<svg xmlns="http://www.w3.org/2000/svg" width="49" height="46" viewBox="0 0 49 46"><g><g><path fill="#90c336" d="M16 13.999v4h.5a.5.5 0 0 1 0 1h-5a.5.5 0 0 1 0-1h.5v-4a1 1 0 0 1 1-1h2a1 1 0 0 1 1 1zm-1 0h-2v4h2zm21 0v4h.5a.5.5 0 0 1 0 1h-5a.5.5 0 0 1 0-1h.5v-4a1 1 0 0 1 1-1h2a1 1 0 0 1 1 1zm-1 0h-2v4h2zm-9 0v4h.5a.5.5 0 0 1 0 1h-5a.5.5 0 0 1 0-1h.5v-4a1 1 0 0 1 1-1h2a1 1 0 0 1 1 1zm-1 0h-2v4h2zm-25 30.5c0-.277.226-.5.505-.5H7V10a2 2 0 0 1-2-2v-6a2 2 0 0 1 2-2h34a2 2 0 0 1 2 2v6a2 2 0 0 1-2 2v15.666a9.425 9.425 0 0 0-1-.333V10H26.533a.51.51 0 0 1-.033 0h-2a.5.5 0 1 1 0-1h-4a.5.5 0 0 1 0 1h-8a.5.5 0 1 1 0-1h-2a.5.5 0 0 1 0 1h-2a.51.51 0 0 1-.033 0H8v34h8.693a.502.502 0 0 1 .503.5c0 .275-.226.5-.505.5H.505a.503.503 0 0 1-.505-.5zm41-.5h2.433c.279 0 .505.223.505.5 0 .275-.226.5-.505.5h-17.9a.51.51 0 0 1-.066 0H18.71a.503.503 0 0 1-.505-.5c0-.276.225-.499.503-.5H20V34a1 1 0 0 1 1-1h6a1 1 0 0 1 1 1v10h9.381a9.782 9.782 0 0 0 .238 0h2.38v-.331a9.426 9.426 0 0 0 1-.334zm-34-35h34a1 1 0 0 0 1-1v-6a1 1 0 0 0-1-1H7a1 1 0 0 0-1 1v6a1 1 0 0 0 1 1zm9 15v4h.5a.5.5 0 0 1 0 1h-5a.5.5 0 0 1 0-1h.5v-4a1 1 0 0 1 1-1h2a1 1 0 0 1 1 1zm-1 0h-2v4h2zm21 0v1.119c-.34.053-.673.125-1 .214V24h-2v2.132c-.347.187-.68.395-1 .622v-2.754a1 1 0 0 1 1-1h2a1 1 0 0 1 1 1zm-10 0v4h.5a.5.5 0 0 1 0 1h-5a.5.5 0 0 1 0-1h.5v-4a1 1 0 0 1 1-1h2a1 1 0 0 1 1 1zm-1 0h-2v4h2zm-9 10v4h.5a.5.5 0 0 1 0 1h-5a.5.5 0 0 1 0-1h.5v-4a1 1 0 0 1 1-1h2a1 1 0 0 1 1 1zm-1 0h-2v4h2zm12 0h-1v1.5a.5.5 0 0 1-1 0V34h-4v10h4v-6.5a.5.5 0 0 1 1 0V44h1z"/></g><g><path fill="#90c336" d="M37.547 27a7.547 7.547 0 1 1 0 15.093 7.547 7.547 0 0 1 0-15.093zm-6.61 7.562a6.625 6.625 0 1 0 13.25 0 6.625 6.625 0 0 0-13.25 0zm12.537 5.91a.475.475 0 0 1 .672 0l4.701 4.702a.475.475 0 0 1-.671.672l-4.702-4.701a.475.475 0 0 1 0-.672zm-5.927-10.66l.099.001a1.433 1.433 0 0 0 0 .97c-.033-.002-.066-.002-.1-.002a3.766 3.766 0 0 0-2.736 6.352 2.898 2.898 0 0 0-.046 1.245 4.734 4.734 0 0 1 2.782-8.565zm.484 0c.259 0 .469.217.469.485 0 .267-.21.484-.469.484a.477.477 0 0 1-.469-.484c0-.268.21-.485.47-.485z"/></g></g></svg>