<svg xmlns="http://www.w3.org/2000/svg" width="26" height="37" viewBox="0 0 26 37"><g><g><path fill="#90c336" d="M26 9.059v23.94a3 3 0 0 1-3 3h-1v.46a.415.415 0 0 1-.403.531.503.503 0 0 1-.593-.424l-1.873-1.873a.416.416 0 0 1 .588-.588l1.28 1.28V28.5a.5.5 0 0 1 1 0V35H23a2 2 0 0 0 2-2V9h-.5a.5.5 0 0 0 0-1h-.23L18 1.73V6a2 2 0 0 0 2 2h2.5a.5.5 0 1 1 0 1H20a3 3 0 0 1-3-3V1H3a2 2 0 0 0-2 2v16.5a.5.5 0 1 1-1 0V3a3 3 0 0 1 3-3h13.94l.78-.01 8.29 8.29zm-9.5 27.94a.503.503 0 0 1-.097-.009.414.414 0 0 1-.403-.531v-.46H3a3 3 0 0 1-3-3V22.5a.5.5 0 0 1 1 0V33a2 2 0 0 0 2 2h13v-5.5a.5.5 0 0 1 1 0v5.887l1.28-1.281a.416.416 0 0 1 .589.588l-1.873 1.873a.5.5 0 0 1-.496.433zM5.5 7h7a.5.5 0 0 1 0 1h-7a.5.5 0 1 1 0-1zm0 6h15a.5.5 0 1 1 0 1h-15a.5.5 0 0 1 0-1zm0 6h7a.5.5 0 1 1 0 1h-7a.5.5 0 0 1 0-1zm0 6h7a.5.5 0 0 1 0 1h-7a.5.5 0 1 1 0-1zM19 18a5 5 0 1 1 0 10 5 5 0 0 1 0-10zm-4 5a4 4 0 1 0 8 0 4 4 0 0 0-8 0zm4-2a2 2 0 1 1 0 4 2 2 0 0 1 0-4zm-1 2a1 1 0 1 0 2 0 1 1 0 0 0-2 0z"/></g></g></svg>