<svg xmlns="http://www.w3.org/2000/svg" width="50" height="45" viewBox="0 0 50 45"><g><g><path fill="#90c336" d="M1 44h7.5a.5.5 0 0 1 0 1H1a.5.5 0 0 1 0-1zm10 0h5.088l2.772-13.572a.502.502 0 0 1 .14-.258v-8.466L12.295 15H12v1.5a.5.5 0 1 1-1 0v-2a.5.5 0 0 1 .5-.5H19v-.296l-6.705-6.705H12v1.5a.5.5 0 1 1-1 0v-2a.5.5 0 0 1 .5-.5H19.264L25.12.145c.11-.11.252-.15.396-.141a.503.503 0 0 1 .395.14L31.767 6H39.5a.5.5 0 0 1 .5.5v2a.5.5 0 1 1-1 0V7h-.264L32 13.735v.263h7.5a.5.5 0 0 1 .5.5v2a.5.5 0 1 1-1 0V15h-.264L32 21.736v8.435a.501.501 0 0 1 .14.258L34.912 44H49a.5.5 0 1 1 0 1H30a.5.5 0 1 1 0-1h3.236l-7.72-7.204L17.795 44H26a.5.5 0 1 1 0 1H11a.5.5 0 1 1 0-1zM46.5 8h-4a.5.5 0 1 1 0-1h4a.5.5 0 0 1 0 1zM19 7h-5.233L19 12.231zm0 11.532V15h-5.233L19 20.232zm14.492 24.284l-2.31-11.308-4.904 4.576zM20.736 18h9.528L25.5 13.235zm9.528-11h-9.528l4.764 4.764zm-9.528 12l4.764 4.764 4.764-4.765zm-.736.735v9.529l4.764-4.765zM20.736 30h9.528L25.5 25.236zm9.467 1h-9.375l4.688 4.373zM17.5 42.852l7.253-6.768-4.93-4.6zM20 13.438V17.264l4.764-4.764L20 7.736zM25.516 1.22L20.736 6h9.56zM31 7.736L26.236 12.5 31 17.264zm0 12l-4.764 4.763L31 29.264zm6.264-12.737H32v5.265zM32 15V20.265L37.264 15zM8.5 16h-4a.5.5 0 0 1 0-1h4a.5.5 0 1 1 0 1zm0-8h-4a.5.5 0 1 1 0-1h4a.5.5 0 0 1 0 1zm34 7h4a.5.5 0 1 1 0 1h-4a.5.5 0 0 1 0-1z"/></g></g></svg>