<svg xmlns="http://www.w3.org/2000/svg" width="68" height="34" viewBox="0 0 68 34"><g><g><path fill="#90c336" d="M67 33.999H55a.5.5 0 1 1 0-1h2.5v-17a.5.5 0 1 1 1 0v17H67a.5.5 0 1 1 0 1zm-5.5-20h-7a3.5 3.5 0 0 1-3.5-3.5v-7a3.5 3.5 0 0 1 3.5-3.5h7a3.5 3.5 0 0 1 3.5 3.5v7a3.5 3.5 0 0 1-3.5 3.5zm2.5-10.5a2.5 2.5 0 0 0-2.5-2.5h-7a2.5 2.5 0 0 0-2.5 2.5v7a2.5 2.5 0 0 0 2.5 2.5h7a2.5 2.5 0 0 0 2.5-2.5zm-5.5 4.5H57v2.5a.5.5 0 0 1-1 0V3.06c.162-.034.327-.06.5-.06h2a2.5 2.5 0 1 1 0 5zm0-4H57v3h1.5a1.5 1.5 0 0 0 0-3zm-36 19.5a.5.5 0 1 1 0-1h2a.5.5 0 1 1 0 1zm6 0a.5.5 0 1 1 0-1h2a.5.5 0 1 1 0 1zm5.5 2.5a.5.5 0 0 1-.5.5h-10a.5.5 0 0 1 0-1h10a.5.5 0 0 1 .5.5zm15.5 4h-1.735a5.017 5.017 0 0 1-2.597 3H52.5a.5.5 0 1 1 0 1h-16a.5.5 0 1 1 0-1h4.331a5.016 5.016 0 0 1-2.596-3H24.5a.5.5 0 1 1 0-1h13.536c-.017-.166-.036-.33-.036-.5a5 5 0 1 1 10 0c0 .17-.02.334-.037.5H49v-4h-1a.5.5 0 0 1 0-1h.855c-.283-.865-.95-1.274-1.685-1.532L40.96 21H27v3.5a.5.5 0 0 1-1 0v-3.5H11.396l-.811 3H12a.5.5 0 0 1 .5.5v1.5a.49.49 0 0 1-.077.25.486.486 0 0 1 .077.25.5.5 0 0 1-.5.5h-2v2h3c.013 0 .024.006.037.007-.017-.167-.037-.335-.037-.507a5 5 0 1 1 10 0 4.996 4.996 0 0 1-2.832 4.5H32.5a.5.5 0 1 1 0 1H11a.5.5 0 1 1 0-1h4.831a5.017 5.017 0 0 1-2.616-3.053.495.495 0 0 1-.215.053H9.5a.5.5 0 0 1-.5-.5v-3.432a.507.507 0 0 1 .008-.216l1.48-5.47a.498.498 0 0 1 .167-.25c.01-.008.014-.02.024-.028l6.958-6.456A2.989 2.989 0 0 1 20.5 11.5h12c1.368 0 2.509.92 2.87 2.172.039.046.073.097.095.154l5.849 6.228 2.962.7c.327.056.723.133 1.224.246.531.12.996.245 1.41.377.13.042.246.084.365.127.067.024.137.047.2.071.108.04.207.083.306.125.062.027.126.053.185.08a6.968 6.968 0 0 1 .647.343 5.141 5.141 0 0 1 .325.222c.039.03.073.06.11.09.055.046.112.092.161.14.029.027.053.055.08.083.165.172.293.348.39.53.017.03.036.061.05.092.023.048.042.097.06.145.015.037.03.073.043.11.016.047.03.093.042.14.011.041.022.08.031.122a2.957 2.957 0 0 1 .048.267l.017.13.012.146.008.122.005.17c.001.033.003.066.003.1l.002.268v4.5a.5.5 0 0 1-.5.5zm-6.5-5.5a4 4 0 1 0 0 8 4 4 0 0 0 0-8zm-25 8a4 4 0 1 0 0-8 4 4 0 0 0 0 8zm-7.685-7.5l-.271 1H11.5v-1zm7.185-9.85L12.273 20H17.5zm15-2.65h-12c-.738 0-1.373.404-1.718 1h.04c-.197.313-.322.71-.322 1v5.5H26v-5.5h-5a.5.5 0 1 1 0-1h13.218c-.345-.596-.98-1-1.718-1zm2 2H27v5.5h7.5zm1 .823V20h4.391zM18 26a2.5 2.5 0 1 1 0 5 2.5 2.5 0 0 1 0-5zm0 4a1.5 1.5 0 1 0 0-3 1.5 1.5 0 0 0 0 3zm0-2a.5.5 0 1 1 0 1 .5.5 0 0 1 0-1zm25 3a2.5 2.5 0 1 1 0-5 2.5 2.5 0 0 1 0 5zm0-4a1.5 1.5 0 1 0 0 3 1.5 1.5 0 0 0 0-3zm0 2a.5.5 0 1 1 0-1 .5.5 0 0 1 0 1zm-34.5 5H1a.5.5 0 1 1 0-1h7.5a.5.5 0 1 1 0 1z"/></g></g></svg>