<svg xmlns="http://www.w3.org/2000/svg" width="68" height="48" viewBox="0 0 68 48"><g><g><path fill="#90c336" d="M1 47h7.5a.5.5 0 0 1 0 1H1a.5.5 0 1 1 0-1zm10 0h1.5a2.514 2.514 0 0 1-.5-.5h-1.5a.5.5 0 0 1-.431-.247L8.815 45H7.5a.5.5 0 0 1-.5-.5v-1.816l-1.253-1.253A.5.5 0 0 1 5.5 41v-1.5A.5.5 0 0 1 6 39h10a.5.5 0 0 1 0 1H6.5v.813l1.26 1.26A.5.5 0 0 1 8 42.5h2a.5.5 0 0 1 0 1H8v.5h1.014a.5.5 0 0 1 .413.24l1.26 1.26h.863a2.5 2.5 0 0 1 3.15-2.9.498.498 0 0 1 .3-.1h19a.5.5 0 0 1 0 1H16a2.489 2.489 0 0 1 .45 2H19a.5.5 0 0 1 0 1h-3c-.142.19-.31.358-.5.5H32a.5.5 0 0 1 0 1H11a.5.5 0 1 1 0-1zm25 0h14a2.514 2.514 0 0 1-.5-.5h-2a.5.5 0 0 1 0-1h1.55a2.5 2.5 0 1 1 4.9 0H57v-2h-2a.5.5 0 0 1 0-1h1v-2.707c-1.103-.456-3.674-1.534-4-1.794-.177-.142-.368-.26-.574-.5H47a.5.5 0 0 1-.5-.5V32.5H44a.5.5 0 0 1 0-1h5.124c-.322-.66-.69-1.2-1.124-1.502-.823-.573-1.5-.5-2.5-.5H43a.5.5 0 0 1-.5-.5V25.5H42v14a.5.5 0 0 1-.5.5h-23a.5.5 0 1 1 0-1h8.498l.002-.001s3-1.334 3-3.5v-6.5c0-1.042-1.125-3-3-3-.147 0-.28-.003-.4-.01a.503.503 0 0 1-.266-.017 4.595 4.595 0 0 1-.06-.006 1.21 1.21 0 0 0 .01-.015A.5.5 0 0 1 26 25.5v-2c0-.094.026-.182.071-.258a.498.498 0 0 1 .18-.283L47.908 5.996c.03.002.061.004.092.004a.5.5 0 0 1 .5-.5H51V2.277L49.048 1.09 30.885 15.334a4.035 4.035 0 0 0-.005-.01.499.499 0 1 1-.56-.791 2.113 2.113 0 0 0-.016-.015L48.634.144a.503.503 0 0 1 .03-.022.494.494 0 0 1 .585-.053l2.386 1.45a.5.5 0 0 1 .365.48v4a.5.5 0 0 1-.5.5h-2.613L27 23.644V25c1.333 0 4 .791 4 4v6.5c0 .94-.909 2.637-2.254 3.5H41V25a.5.5 0 0 1 .5-.499h1.461a.5.5 0 0 1 .538.51V28.5h2c1.21 0 3.543.458 4.5 3a304.81 304.81 0 0 1 1.89 5.187c.07.086.11.194.111.313l4.5 2a.5.5 0 0 1 .5.5v3h.5a.5.5 0 0 1 .433.75.498.498 0 0 1 .067.251V46a.5.5 0 0 1-.75.433.498.498 0 0 1-.25.067h-3.5c-.142.19-.31.358-.5.5h14a.5.5 0 0 1 0 1H36a.5.5 0 1 1 0-1zm14.5-11.502c-.276-.925-.58-2.017-.951-3a.505.505 0 0 1-.049.002h-2v4h3.349c-.113-.271-.23-.6-.35-1.002zM12 30.143V31.5a.5.5 0 0 1-.5.5H7v6a.5.5 0 0 1-1 0v-6.5a.5.5 0 0 1 .5-.5H11v-1c0-.094.026-.182.071-.258a.497.497 0 0 1 .18-.282l16.377-12.843.014.034A.499.499 0 0 1 28.5 17a.5.5 0 0 1-.347.476zM12.5 45a1.5 1.5 0 1 0 3 0 1.5 1.5 0 0 0-3 0zm1.5-.501a.5.5 0 1 1 0 1 .5.5 0 0 1 0-1zm36 .5a1.5 1.5 0 1 0 3 0 1.5 1.5 0 0 0-3 0zm1.5-.5a.5.5 0 1 1 0 1 .5.5 0 0 1 0-1zm-31 1H38a.5.5 0 0 1 0 1H20.5a.5.5 0 0 1 0-1zm19.75-3h5a1.75 1.75 0 0 1 0 3.5h-5a1.75 1.75 0 1 1 0-3.5zM39.5 45H46V43.5h-6.5zM24 32.116l4 1.23V31c0-.709-.542-3-2-3h-2zm4.228 2.346L23.475 33A.5.5 0 0 1 23 32.5v-5a.5.5 0 0 1 .5-.5v-.001H26c1.375 0 3 1.583 3 4v3s0 .57-.263.33a.5.5 0 0 1-.51.132zM8.5 33H13a.5.5 0 1 1 0 1H8.5a.5.5 0 0 1 0-1zm0 2H13a.5.5 0 0 1 0 1H8.5a.5.5 0 0 1 0-1zm0 2H13a.5.5 0 0 1 0 1H8.5a.5.5 0 0 1 0-1zm42-30a.5.5 0 0 1 .5.5v12a.5.5 0 0 1-1 0v-12a.5.5 0 0 1 .5-.5zm.5 16.5v1a.5.5 0 0 1-1 0v-1c0-.029.002-.056.007-.083a1.5 1.5 0 1 1 .986 0A.503.503 0 0 1 51 23.5zM50 22a.5.5 0 1 0 1 0 .5.5 0 0 0-1 0z"/></g></g></svg>