<svg xmlns="http://www.w3.org/2000/svg" width="68" height="36" viewBox="0 0 68 36"><g><g><path fill="#90c336" d="M67 35.999H55a.5.5 0 0 1 0-1h2.5v-15a.5.5 0 1 1 1 0v15H67a.5.5 0 1 1 0 1zm-8.5-18h-1a3.5 3.5 0 0 1-3.5-3.5v-11a3.5 3.5 0 0 1 3.5-3.5h1a3.5 3.5 0 0 1 3.5 3.5v11a3.5 3.5 0 0 1-3.5 3.5zm2.5-14.5a2.5 2.5 0 0 0-2.5-2.5h-1a2.5 2.5 0 0 0-2.5 2.5v11a2.5 2.5 0 0 0 2.5 2.5h1a2.5 2.5 0 0 0 2.5-2.5zm-3 12.5a2 2 0 1 1 0-4 2 2 0 0 1 0 4zm0-3a1 1 0 1 0 0 2 1 1 0 0 0 0-2zm0-2a2 2 0 1 1 0-4 2 2 0 0 1 0 4zm0-3a1 1 0 1 0 0 2 1 1 0 0 0 0-2zm0-2a2 2 0 1 1 0-4 2 2 0 0 1 0 4zm0-3a1 1 0 1 0 0 2 1 1 0 0 0 0-2zm-35.5 22.5a.5.5 0 0 1 0-1h2a.5.5 0 0 1 0 1zm6 0a.5.5 0 0 1 0-1h2a.5.5 0 0 1 0 1zm5.5 2.5a.5.5 0 0 1-.5.5h-10a.5.5 0 0 1 0-1h10a.5.5 0 0 1 .5.5zm18.5 8h-16a.5.5 0 0 1 0-1h4.331a5.016 5.016 0 0 1-2.596-3H24.5a.5.5 0 1 1 0-1h13.536c-.016-.166-.036-.33-.036-.5a5 5 0 1 1 10 0c0 .17-.02.334-.036.5H49v-4h-1a.5.5 0 0 1 0-1h.855c-.283-.865-.949-1.274-1.685-1.532L40.96 23H27v3.5a.5.5 0 0 1-1 0v-3.5H11.396l-.811 3H12a.5.5 0 0 1 .5.5v1.5a.487.487 0 0 1-.077.25.488.488 0 0 1 .077.25.5.5 0 0 1-.5.5h-2v2h3c.013 0 .024.006.037.007-.017-.168-.037-.335-.037-.507a5 5 0 1 1 10 0 4.995 4.995 0 0 1-2.832 4.5H32.5a.5.5 0 1 1 0 1H11a.5.5 0 0 1 0-1h4.831a5.016 5.016 0 0 1-2.616-3.054.492.492 0 0 1-.215.053H9.5a.5.5 0 0 1-.5-.5v-3.431a.506.506 0 0 1 .009-.217l1.479-5.47a.498.498 0 0 1 .167-.248c.01-.01.014-.02.024-.029l6.958-6.456a2.989 2.989 0 0 1 2.863-2.148h12c1.368 0 2.51.92 2.87 2.172a.51.51 0 0 1 .095.154l5.849 6.228 2.962.7c.328.055.723.133 1.224.246.531.12.996.245 1.41.377.13.042.246.084.365.127.067.024.137.047.2.071a7.6 7.6 0 0 1 .306.125c.062.027.127.053.186.08.091.042.177.085.26.127a5.492 5.492 0 0 1 .52.304c.067.044.132.089.191.134.039.03.074.06.11.09.055.046.112.092.161.14.029.027.053.055.08.083.165.172.293.348.39.53.017.03.036.06.05.092.023.048.042.096.06.145l.044.11a2.403 2.403 0 0 1 .072.261 2.949 2.949 0 0 1 .048.268 3.968 3.968 0 0 1 .029.276l.008.122c.003.056.004.113.006.17l.002.1c.002.088.002.178.002.268v4.5a.5.5 0 0 1-.5.5h-1.735a5.016 5.016 0 0 1-2.597 3H52.5a.5.5 0 1 1 0 1zm-34.5-1.5a4 4 0 1 0 0-8 4 4 0 0 0 0 8zm-7.685-7.5l-.27 1H11.5v-1zm7.185-9.85L12.274 22H17.5zm15-2.65h-12c-.738 0-1.373.404-1.718 1h.04c-.197.313-.322.71-.322 1v5.5H26v-5.5h-5a.5.5 0 0 1 0-1h13.218c-.345-.596-.98-1-1.718-1zm2 2H27v5.5h7.5zm1 .823V22h4.391zM47 30.5a4 4 0 1 0-8 0 4 4 0 0 0 8 0zm-4 2.5a2.5 2.5 0 1 1 0-5 2.5 2.5 0 0 1 0 5zm0-4a1.5 1.5 0 1 0 0 3 1.5 1.5 0 0 0 0-3zm0 2a.5.5 0 1 1 0-1 .5.5 0 0 1 0 1zm-25-3a2.5 2.5 0 1 1 0 5 2.5 2.5 0 0 1 0-5zm0 4a1.5 1.5 0 1 0 0-3 1.5 1.5 0 0 0 0 3zm0-2a.5.5 0 1 1 0 1 .5.5 0 0 1 0-1zm-9.5 6H1a.5.5 0 0 1 0-1h7.5a.5.5 0 1 1 0 1z"/></g></g></svg>