<svg xmlns="http://www.w3.org/2000/svg" width="71" height="30" viewBox="0 0 71 30"><g><g><path fill="#90c336" d="M69.75 30.006h-31a.5.5 0 0 1 0-1h14.343a3.008 3.008 0 0 1-1.167-1.5H50.25a.5.5 0 0 1 0-1h1.5a3 3 0 1 1 6 0h2.5v-3h-2.5a.5.5 0 0 1 0-1h2v-3.25c0-.544-.428-1.063-1.008-1.459-1.104-.456-3.666-1.53-3.992-1.79-.177-.142-.368-.262-.574-.501H49.75a.5.5 0 0 1-.5-.5v-4.5h-2.5a.5.5 0 1 1 0-1h5.121c-.321-.658-.689-1.198-1.121-1.5-.823-.573-1.5-.5-2.5-.5h-7v8a.5.5 0 1 1-1 0v-8h-2v8.75a4.248 4.248 0 0 1-2.251 3.75h4.25v-2a.5.5 0 0 1 1 0v2.5a.5.5 0 0 1-.5.5h-19.5a.5.5 0 1 1 0-1h5.52l-12.148-.828c.078.088.129.201.129.328v.5h3.5a.5.5 0 0 1 0 1h-14v.814l1.288 1.289c.125.09.212.231.212.397h2a.5.5 0 0 1 0 1h-2v.5h1c.166 0 .307.087.398.213l1.287 1.287H9.75a.5.5 0 1 1 0 1h-1.5a.49.49 0 0 1-.398-.212l-1.288-1.288H5.25a.5.5 0 0 1-.5-.5v-1.814l-1.288-1.288a.491.491 0 0 1-.212-.398v-1.5a.5.5 0 0 1 .5-.5v-5c0-.053.015-.102.03-.15l-.681-.392a.51.51 0 0 1-.356-.492l-.002-.01v-.003c.001-.021.003-.042.007-.063l.91-9.928a.464.464 0 0 1 .105-.24.493.493 0 0 1 .305-.543L11.909.17a.493.493 0 0 1 .379-.153L24.03.544c.12.139.219.294.219.462 0 .198-.136.381-.284.536l-11.538-.518c-.023.014-.042.033-.068.043L4.751 3.994c0 .02.01.038.007.057l-.896 9.762 6.642 3.81c.23.132.314.424.189.653l-.004.004a.49.49 0 0 1 .06.226v1.5h3v-.5c0-.152.072-.283.18-.375l-1.692-.116a.5.5 0 1 1 .05-.998l21.476 1.463c.029.002.053.015.08.022a3.497 3.497 0 0 0 3.407-3.496v-10.5a3.5 3.5 0 0 0-3.5-3.5v-.032c-.013 0-.025.006-.038.005l-7.057-.316c-.186-.176-.405-.404-.405-.657 0-.126.058-.245.136-.356l7.377.331c.044.002.082.019.122.031.038-.002.076-.006.115-.006a4.25 4.25 0 0 1 4.25 4.25v1.25h10c1.208 0 3.541.459 4.5 3 .78 2.069 1.614 4.412 1.898 5.213.06.082.102.178.102.287l3.48 1.546c0-.032.004-.053.02-.046.36.159.667.316.944.475l.056.025v.007c1.045.613 1.5 1.27 1.5 2.243v3.25a.5.5 0 0 1 .5.5.485.485 0 0 1-.077.25.488.488 0 0 1 .077.25v3.5a.5.5 0 0 1-.5.5h-3.176a3.008 3.008 0 0 1-1.167 1.5H69.75a.5.5 0 1 1 0 1zm-65-14.595v4.595h1v-4c0-.006.003-.012.004-.019zm2 1.148v3.447h3v-1.5c0-.071.016-.14.044-.201zm46.5-3.053c-.277-.929-.582-2.023-.955-3.009-.016.002-.03.009-.045.009h-2v4h3.35c-.114-.271-.23-.597-.35-1zm3.5 13a2 2 0 1 0-4 0 2 2 0 0 0 4 0zm-2 .5a.5.5 0 1 1 0-1 .5.5 0 0 1 0 1zm-45.5 2.5a.5.5 0 0 1-.5.5h-7.5a.5.5 0 0 1 0-1h7.5a.5.5 0 0 1 .5.5zm8.5-5a.5.5 0 0 1 0-1h19a.5.5 0 0 1 0 1zm23 3h-17a.5.5 0 0 1 0-1h17a.5.5 0 1 1 0 1zm6-12.5v-2.5a.5.5 0 0 1 1 0v2.5a.5.5 0 0 1-1 0zm3 9.5v1.5a1 1 0 0 1-1 1h-6.5a1 1 0 0 1-1-1v-1.5a1 1 0 0 1 1-1h6.5a1 1 0 0 1 1 1zm-7.5 1.5h6.5v-1.5h-6.5zm-31 3h1.843a3 3 0 1 1 4.657-2.5h4a.5.5 0 1 1 0 1h-4.175a3.006 3.006 0 0 1-1.168 1.5H34.75a.5.5 0 1 1 0 1h-23.5a.5.5 0 0 1 0-1zm3.5-.5a2 2 0 1 0 0-4 2 2 0 0 0 0 4zm0-2.5a.5.5 0 1 1 0 1 .5.5 0 0 1 0-1z"/></g></g></svg>