<svg xmlns="http://www.w3.org/2000/svg" width="34" height="41" viewBox="0 0 34 41"><g><g><path fill="#90c336" d="M33 16c1 0 1 1.875 1 3s-3.625 6-8 6v3h7c1 0 1 1.875 1 3s-3.625 6-8 6v1a3 3 0 0 1-3 3H11a3 3 0 0 1-3-3v-1c-4.375 0-8-4.875-8-6s0-3 1-3h7v-3c-4.375 0-8-4.875-8-6s0-3 1-3h1.5a.5.5 0 1 1 0 1H2l-1 1c0 2.062 3.812 6 7 6v-7H5.5a.5.5 0 1 1 0-1H8v-3c-4.375 0-8-4.875-8-6s0-3 1-3h7V3a3 3 0 0 1 3-3h12a3 3 0 0 1 3 3v1h7c1 0 1 1.875 1 3s-3.625 6-8 6v3h7zm-7 20c3.187 0 7-3.938 7-6l-1-1h-6zm0-12c3.187 0 7-3.938 7-6l-1-1h-6zM8 5H2L1 6c0 2.062 3.812 6 7 6zm0 24H2l-1 1c0 2.062 3.812 6 7 6zm17 7.607c-.418-.21-.66-.443 0-.549v-11.45c-.418-.21-.66-.444 0-.55v-11.45c-.418-.21-.66-.444 0-.55V3a2 2 0 0 0-2-2H11a2 2 0 0 0-2 2v9.058c.66.106.418.34 0 .55v11.45c.66.106.418.34 0 .55v11.45c.66.106.418.34 0 .55V38a2 2 0 0 0 2 2h12a2 2 0 0 0 2-2zM33 6l-1-1h-6v7c3.187 0 7-3.938 7-6zM16.5 38a5.5 5.5 0 1 1 0-11c.873 0 1.695.209 2.428.57a2.498 2.498 0 0 0-.646.8A4.5 4.5 0 1 0 21 32.5c0-.187-.033-.364-.055-.545a2.48 2.48 0 0 0 .969-.395c.053.306.086.619.086.94a5.5 5.5 0 0 1-5.5 5.5zm0-12a5.5 5.5 0 1 1 0-11 5.5 5.5 0 0 1 0 11zm0-10a4.5 4.5 0 1 0 0 9 4.5 4.5 0 0 0 0-9zm0-2a5.5 5.5 0 1 1 0-11 5.5 5.5 0 0 1 0 11zm0-10a4.5 4.5 0 1 0 0 9 4.5 4.5 0 0 0 0-9zm0 2c-.041 0-.078-.014-.117-.024l-.007.036c-1.18.06-2.14.93-2.335 2.067-.418.135-.041-.055-.041.42a.496.496 0 1 1-.84.363c-.046.097-.16.64-.16-.362A3.5 3.5 0 0 1 16.5 5c.047 0 .091.012.138.014-.001.003-.002.01-.004.013.21.06.366.244.366.473a.5.5 0 0 1-.5.5z"/></g></g></svg>