<svg xmlns="http://www.w3.org/2000/svg" width="49" height="39" viewBox="0 0 49 39"><g><g><path fill="#90c336" d="M15.912 30.499c1.535 0 2.779 1.23 2.779 2.75 0 1.518-1.244 2.75-2.779 2.75-1.534 0-2.778-1.232-2.778-2.75 0-1.52 1.244-2.75 2.778-2.75zm0 4.5c.977 0 1.768-.784 1.768-1.75 0-.967-.791-1.75-1.768-1.75a1.76 1.76 0 0 0-1.768 1.75c0 .966.792 1.75 1.768 1.75zm-2.778-31.5c0-.553.452-1 1.01-1h3.536c.558 0 1.01.447 1.01 1v22.5c0 .552-.452 1-1.01 1h-3.536c-.558 0-1.01-.448-1.01-1zm1.01 22.5h3.536v-22.5h-3.536zm21.217 1c-.558 0-1.01-.448-1.01-1v-17.5c0-.553.452-1 1.01-1h3.536c.558 0 1.01.447 1.01 1v17.5c0 .552-.452 1-1.01 1zm3.536-18.5H35.36v17.5h3.536zm-1.768 27.5c-1.535 0-2.779-1.232-2.779-2.75 0-1.52 1.244-2.75 2.779-2.75 1.534 0 2.778 1.23 2.778 2.75 0 1.518-1.244 2.75-2.778 2.75zm0-4.5a1.76 1.76 0 0 0-1.768 1.75c0 .966.791 1.75 1.768 1.75a1.76 1.76 0 0 0 1.768-1.75 1.76 1.76 0 0 0-1.768-1.75zm11.366 7.5H30.309a.503.503 0 0 1-.505-.5c0-.277.226-.5.505-.5h1.01v-28.5h-9.598v28.5h6.568c.279 0 .505.223.505.5 0 .276-.226.5-.505.5H6.567a.503.503 0 0 1-.505-.5c0-.277.226-.5.505-.5h4.053a2.463 2.463 0 0 1-.517-1.5v-10.5c0-.276.226-.5.505-.5.28 0 .505.224.505.5v10.5c0 .828.679 1.5 1.516 1.5h8.082v-35.5c0-.829-.678-1.5-1.515-1.5h-6.567c-.837 0-1.516.671-1.516 1.5v20.5c0 .276-.226.5-.505.5a.503.503 0 0 1-.505-.5v-20.5c0-1.382 1.13-2.5 2.526-2.5h6.567c1.395 0 2.525 1.118 2.525 2.5v6h9.599v-1c0-1.381 1.13-2.5 2.525-2.5h6.567c1.395 0 2.526 1.119 2.526 2.5v3.5c0 .276-.226.5-.505.5a.503.503 0 0 1-.505-.5v-3.5c0-.829-.679-1.5-1.516-1.5h-6.567c-.837 0-1.515.671-1.515 1.5v30.5h8.082c.837 0 1.516-.672 1.516-1.5v-23c0-.277.226-.5.505-.5s.505.223.505.5v23c0 .565-.197 1.08-.517 1.5h6.074c.279 0 .505.223.505.5 0 .276-.226.5-.505.5zm-44.96 0H.506a.503.503 0 0 1-.505-.5c0-.277.226-.5.505-.5h3.03c.28 0 .506.223.506.5 0 .276-.226.5-.505.5zm21.723-25.5a.503.503 0 0 1-.506-.5c0-.277.227-.5.506-.5h3.03c.559 0 1.01.447 1.01 1v12.5c0 .552-.451 1-1.01 1h-3.536c-.558 0-1.01-.448-1.01-1v-11.5c0-.277.226-.5.505-.5.28 0 .505.223.505.5v11.5h3.537v-12.5zm-1.516 19.75c0-1.52 1.244-2.75 2.779-2.75 1.534 0 2.778 1.23 2.778 2.75 0 1.518-1.244 2.75-2.778 2.75-1.535 0-2.779-1.232-2.779-2.75zm4.547 0a1.76 1.76 0 0 0-1.768-1.75 1.76 1.76 0 0 0-1.769 1.75c0 .966.792 1.75 1.769 1.75a1.76 1.76 0 0 0 1.768-1.75z"/></g></g></svg>