<svg xmlns="http://www.w3.org/2000/svg" width="43" height="37" viewBox="0 0 43 37"><g><g><path fill="#90c336" d="M41.021 4.977c0-2.184-1.73-3.954-3.872-3.978H37a4 4 0 0 0-3.999 4V5h2.5a.5.5 0 1 1 0 1H33v20.999h-1v-22c0-1.644.803-3.09 2.027-4H15a4 4 0 0 0-4 4v22h-1v-22a5 5 0 0 1 5-5h22.107c.015 0 .03.004.045.004.26.006.46.026.615.063C40.154.397 42 2.458 42 4.976V5l-.146.148A.498.498 0 0 1 41.5 6h-4a.5.5 0 0 1 0-1h3.521zM.5 36h13a.5.5 0 0 1 0 1H.5a.5.5 0 1 1 0-1zm16 0h17a.5.5 0 0 1 0 1h-17a.5.5 0 1 1 0-1zm20 0h6a.5.5 0 0 1 0 1h-6a.5.5 0 1 1 0-1z"/></g><g><path fill="#90c336" d="M28 36.999H5.893c-.016 0-.03-.005-.045-.005a3.014 3.014 0 0 1-.616-.063C2.846 36.6 1 34.541 1 32.021v-.022l.145-.148a.5.5 0 0 1 .355-.852h4a.5.5 0 0 1 0 1H1.978v.021c0 2.185 1.73 3.955 3.872 3.98H28a4 4 0 0 0 4-4.001v-22h1v22a5 5 0 0 1-5 5zm-4.5-5h-16a.5.5 0 1 1 0-1H10v-21h1v21h12.5a.5.5 0 0 1 0 1z"/></g><g><path fill="#90c336" d="M28 36.999h-.107c-.016 0-.03-.005-.045-.005a3.014 3.014 0 0 1-.616-.063C24.846 36.6 23 34.541 23 32.021v-.022h.978v.021c0 2.185 1.73 3.955 3.872 3.98H28zm-7-25.5a.5.5 0 0 1-1 0V9h-2.5a.5.5 0 0 1 0-1H20V7h-2.5a.5.5 0 1 1 0-1h3a.5.5 0 0 1 .5.5zm-.5 2.5a.5.5 0 0 1 .5.5V19h8.5a.5.5 0 1 1 0 1h-9a.5.5 0 0 1-.5-.5v-5a.5.5 0 0 1 .5-.5zm0 8a.5.5 0 0 1 .5.5v5a.5.5 0 0 1-1 0v-5a.5.5 0 0 1 .5-.5.5.5 0 0 1 0-1h9a.5.5 0 0 1 0 1h-9zm-5-19a.5.5 0 0 1 .5.5v16a.5.5 0 0 1-.5.5h-3a.5.5 0 0 1 0-.999H15V3.5a.5.5 0 0 1 .5-.5zm7.134 20h1.075a12.025 12.025 0 0 0 6.93 7.17 2.975 2.975 0 0 0-.474.89 13.035 13.035 0 0 1-7.53-8.06zm.443-5h-1a12.98 12.98 0 0 1 8.088-11.061c.108.326.267.625.473.89a11.98 11.98 0 0 0-7.56 10.17zM17.5 16a.5.5 0 0 1 .5.5v5.797l.157-.157a.476.476 0 0 1 .672.672l-.813.813a.49.49 0 0 1-.48.373.5.5 0 0 1-.492-.292l-.9-.9a.49.49 0 1 1 .694-.694l.162.163V16.5a.5.5 0 0 1 .5-.5z"/></g></g></svg>