<?xml version="1.0" encoding="utf-8"?><svg xmlns="http://www.w3.org/2000/svg" xmlns:xlink="http://www.w3.org/1999/xlink"><symbol viewBox="0 0 14 8" id="accordion-arrow" xmlns="http://www.w3.org/2000/svg"><path d="M-.01.725L.713-.01 7 6.386 13.287-.01l.723.735-6.287 6.397.15.152-.723.736L7 7.858l-.15.152-.723-.736.15-.152z"/></symbol><symbol viewBox="0 0 12 7" id="arrow-right" xmlns="http://www.w3.org/2000/svg"><path d="M0 3.998v-1h10.206L8.016.807l.793-.793 3.176 3.176-.31.308.31.31-3.176 3.175-.794-.794L10.206 4z"/></symbol><symbol viewBox="0 0 18 13" id="arrow2-right" xmlns="http://www.w3.org/2000/svg"><path d="M0 6.999V5.998h16.206L11.015.808l.794-.794 6.176 6.176-.31.308.31.31-6.176 6.175-.794-.793 5.19-5.191z"/></symbol><symbol viewBox="0 0 24 24" id="calc" xmlns="http://www.w3.org/2000/svg"><path d="M23.5 11.5c.28 0 .5.22.5.5s-.22.5-.5.5H23v-1h.5zm-11 0H23v1H12.5v-1z"/><path d="M21.5 24H12c.28 0 .5-.22.5-.5V23h9c.83 0 1.5-.67 1.5-1.5v-9h.5c.28 0 .5-.22.5-.5v9.5a2.5 2.5 0 01-2.5 2.5zM24 2.5V12c0-.28-.22-.5-.5-.5H23v-9c0-.83-.67-1.5-1.5-1.5h-9V.5c0-.28-.22-.5-.5-.5h9.5A2.5 2.5 0 0124 2.5z"/><path d="M20 6c.28 0 .5.22.5.5s-.22.5-.5.5h-4c-.28 0-.5-.22-.5-.5s.22-.5.5-.5h4zm0 10c.28 0 .5.22.5.5s-.22.5-.5.5h-4c-.28 0-.5-.22-.5-.5s.22-.5.5-.5h4zm0 3c.28 0 .5.22.5.5s-.22.5-.5.5h-4c-.28 0-.5-.22-.5-.5s.22-.5.5-.5h4zm-7.5 4v.5c0 .28-.22.5-.5.5s-.5-.22-.5-.5V23h1zm-1-10.5h1V23h-1V12.5zm0-1h1v1h-1v-1zm0-10.5h1v10.5h-1V1zm1-.5V1h-1V.5c0-.28.22-.5.5-.5s.5.22.5.5zM1 11.5h10.5v1H1v-1zM8 6c.28 0 .5.22.5.5S8.28 7 8 7H6.5V6H8zm-.15 13.15c.2.19.2.51 0 .7a.47.47 0 01-.35.15.47.47 0 01-.35-.15L6 18.7l.7-.7 1.15 1.15zm-.7-3c.19-.2.51-.2.7 0 .2.19.2.51 0 .7L6.7 18l-.7-.7 1.15-1.15zm-1.853 1.849l.7-.7.7.7-.7.7-.7-.7zM6.5 7v1.5c0 .28-.22.5-.5.5s-.5-.22-.5-.5V7h1zm-1-1h1v1h-1V6zm1-1.5V6h-1V4.5c0-.28.22-.5.5-.5s.5.22.5.5z"/><path d="M6 17.3l-.7.7-1.15-1.15c-.2-.19-.2-.51 0-.7.19-.2.51-.2.7 0L6 17.3zM5.5 6v1H4c-.28 0-.5-.22-.5-.5S3.72 6 4 6h1.5zm-.65 13.85a.47.47 0 01-.35.15.47.47 0 01-.35-.15c-.2-.19-.2-.51 0-.7L5.3 18l.7.7-1.15 1.15zM1 11.5v1H.5c-.28 0-.5-.22-.5-.5s.22-.5.5-.5H1z"/><path d="M0 2.5A2.5 2.5 0 012.5 0H12c-.28 0-.5.22-.5.5V1h-9C1.67 1 1 1.67 1 2.5v9H.5c-.28 0-.5.22-.5.5V2.5zm1 19c0 .83.67 1.5 1.5 1.5h9v.5c0 .28.22.5.5.5H2.5A2.5 2.5 0 010 21.5V12c0 .28.22.5.5.5H1v9z"/></symbol><symbol viewBox="0 0 344.96 344.96" id="check" xmlns="http://www.w3.org/2000/svg"><g data-name="Слой 2"><path d="M321.85 86.24l-40-23.11-23.1-40H212.5L172.48 0l-40 23.11H86.24l-23.11 40-40 23.1v46.21L0 172.48l23.11 40v46.21l40 23.11 23.11 40h46.21l40 23.1 40-23.11h46.21l23.11-40 40-23.11V212.5l23.11-40-23.11-40V86.24zM156.91 243.07a16.79 16.79 0 01-23.34 0l-50.45-50.44a16.19 16.19 0 010-22.89l13.35-13.35a16.19 16.19 0 0122.89 0l25.87 25.87 80.34-80.35a16.19 16.19 0 0122.89 0l13.35 13.35a16.19 16.19 0 010 22.89z" data-name="Capa 1"/></g></symbol><symbol viewBox="0 0 8 15" id="fb" xmlns="http://www.w3.org/2000/svg"><path d="M7.384 1.075C6.614.918 6.023.8 5.214.8 2.887.8 1.96 1.904 1.96 3.876v1.44H.5v2.328h1.46v7.081H4.8v-7.08h2.07l.197-2.329H4.8V4.192c0-.63.06-1.026.966-1.026.336 0 .868.06 1.263.139z"/></symbol><symbol viewBox="0 0 16 16" id="instagram" xmlns="http://www.w3.org/2000/svg"><path d="M2.909-.001H13.09A2.909 2.909 0 0116 2.908V13.09a2.909 2.909 0 01-2.91 2.909H2.91A2.909 2.909 0 010 13.089V2.909a2.909 2.909 0 012.91-2.91zM.727 13.817c0 .803.651 1.455 1.455 1.455h11.636c.803 0 1.454-.652 1.454-1.455V6.544h-2.39a5.094 5.094 0 11-9.765 0H.727zM4.594 8a3.406 3.406 0 106.812 0 3.406 3.406 0 00-6.812 0zm6.312-4.828v.218c0 .94.763 1.704 1.703 1.704h.22c.94 0 1.702-.763 1.702-1.704v-.218c0-.94-.762-1.704-1.703-1.704h-.219c-.94 0-1.703.763-1.703 1.704z"/></symbol><symbol viewBox="0 0 24 24" id="slider-arrow-left" xmlns="http://www.w3.org/2000/svg"><g clip-path="url(#hclip0_1243_5615)"><path d="M.275 11.336l4.9-4.876a.938.938 0 011.322 1.33l-3.289 3.272h19.854a.937.937 0 110 1.876H3.209l3.29 3.272a.937.937 0 11-1.324 1.33L.276 12.665l-.001-.001a.938.938 0 010-1.328z"/></g><defs><clipPath id="hclip0_1243_5615"><path transform="matrix(-1 0 0 1 24 0)" d="M0 0h24v24H0z"/></clipPath></defs></symbol><symbol viewBox="0 0 24 24" id="slider-arrow-right" xmlns="http://www.w3.org/2000/svg"><g clip-path="url(#iclip0_1243_5611)"><path d="M23.725 11.336l-4.9-4.876a.938.938 0 00-1.322 1.33l3.289 3.272H.937a.937.937 0 100 1.876h19.855l-3.29 3.272a.937.937 0 101.324 1.33l4.898-4.875.001-.001a.938.938 0 000-1.328z"/></g><defs><clipPath id="iclip0_1243_5611"><path d="M0 0h24v24H0z"/></clipPath></defs></symbol></svg>