<?xml version="1.0" encoding="utf-8"?><svg xmlns="http://www.w3.org/2000/svg" xmlns:xlink="http://www.w3.org/1999/xlink"><symbol viewBox="0 0 14 8" id="accordion-arrow" xmlns="http://www.w3.org/2000/svg"><path d="M-.01.725L.713-.01 7 6.386 13.287-.01l.723.735-6.287 6.397.15.152-.723.736L7 7.858l-.15.152-.723-.736.15-.152z"/></symbol><symbol viewBox="0 0 12 7" id="arrow-right" xmlns="http://www.w3.org/2000/svg"><path d="M0 3.998v-1h10.206L8.016.807l.793-.793 3.176 3.176-.31.308.31.31-3.176 3.175-.794-.794L10.206 4z"/></symbol><symbol viewBox="0 0 18 13" id="arrow2-right" xmlns="http://www.w3.org/2000/svg"><path d="M0 6.999V5.998h16.206L11.015.808l.794-.794 6.176 6.176-.31.308.31.31-6.176 6.175-.794-.793 5.19-5.191z"/></symbol><symbol viewBox="0 0 24 24" id="calc" xmlns="http://www.w3.org/2000/svg"><path d="M23.5 11.5c.28 0 .5.22.5.5s-.22.5-.5.5H23v-1h.5zm-11 0H23v1H12.5v-1z"/><path d="M21.5 24H12c.28 0 .5-.22.5-.5V23h9c.83 0 1.5-.67 1.5-1.5v-9h.5c.28 0 .5-.22.5-.5v9.5a2.5 2.5 0 01-2.5 2.5zM24 2.5V12c0-.28-.22-.5-.5-.5H23v-9c0-.83-.67-1.5-1.5-1.5h-9V.5c0-.28-.22-.5-.5-.5h9.5A2.5 2.5 0 0124 2.5z"/><path d="M20 6c.28 0 .5.22.5.5s-.22.5-.5.5h-4c-.28 0-.5-.22-.5-.5s.22-.5.5-.5h4zm0 10c.28 0 .5.22.5.5s-.22.5-.5.5h-4c-.28 0-.5-.22-.5-.5s.22-.5.5-.5h4zm0 3c.28 0 .5.22.5.5s-.22.5-.5.5h-4c-.28 0-.5-.22-.5-.5s.22-.5.5-.5h4zm-7.5 4v.5c0 .28-.22.5-.5.5s-.5-.22-.5-.5V23h1zm-1-10.5h1V23h-1V12.5zm0-1h1v1h-1v-1zm0-10.5h1v10.5h-1V1zm1-.5V1h-1V.5c0-.28.22-.5.5-.5s.5.22.5.5zM1 11.5h10.5v1H1v-1zM8 6c.28 0 .5.22.5.5S8.28 7 8 7H6.5V6H8zm-.15 13.15c.2.19.2.51 0 .7a.47.47 0 01-.35.15.47.47 0 01-.35-.15L6 18.7l.7-.7 1.15 1.15zm-.7-3c.19-.2.51-.2.7 0 .2.19.2.51 0 .7L6.7 18l-.7-.7 1.15-1.15zm-1.853 1.849l.7-.7.7.7-.7.7-.7-.7zM6.5 7v1.5c0 .28-.22.5-.5.5s-.5-.22-.5-.5V7h1zm-1-1h1v1h-1V6zm1-1.5V6h-1V4.5c0-.28.22-.5.5-.5s.5.22.5.5z"/><path d="M6 17.3l-.7.7-1.15-1.15c-.2-.19-.2-.51 0-.7.19-.2.51-.2.7 0L6 17.3zM5.5 6v1H4c-.28 0-.5-.22-.5-.5S3.72 6 4 6h1.5zm-.65 13.85a.47.47 0 01-.35.15.47.47 0 01-.35-.15c-.2-.19-.2-.51 0-.7L5.3 18l.7.7-1.15 1.15zM1 11.5v1H.5c-.28 0-.5-.22-.5-.5s.22-.5.5-.5H1z"/><path d="M0 2.5A2.5 2.5 0 012.5 0H12c-.28 0-.5.22-.5.5V1h-9C1.67 1 1 1.67 1 2.5v9H.5c-.28 0-.5.22-.5.5V2.5zm1 19c0 .83.67 1.5 1.5 1.5h9v.5c0 .28.22.5.5.5H2.5A2.5 2.5 0 010 21.5V12c0 .28.22.5.5.5H1v9z"/></symbol><symbol viewBox="0 0 344.96 344.96" id="check" xmlns="http://www.w3.org/2000/svg"><g data-name="Слой 2"><path d="M321.85 86.24l-40-23.11-23.1-40H212.5L172.48 0l-40 23.11H86.24l-23.11 40-40 23.1v46.21L0 172.48l23.11 40v46.21l40 23.11 23.11 40h46.21l40 23.1 40-23.11h46.21l23.11-40 40-23.11V212.5l23.11-40-23.11-40V86.24zM156.91 243.07a16.79 16.79 0 01-23.34 0l-50.45-50.44a16.19 16.19 0 010-22.89l13.35-13.35a16.19 16.19 0 0122.89 0l25.87 25.87 80.34-80.35a16.19 16.19 0 0122.89 0l13.35 13.35a16.19 16.19 0 010 22.89z" data-name="Capa 1"/></g></symbol><symbol viewBox="0 0 12 20" id="facebook" xmlns="http://www.w3.org/2000/svg"><path d="M7.5 8V5c0-.828.672-.75 1.5-.75h1.5V.5h-3A4.5 4.5 0 003 5v3H0v3.75h3V20h4.5v-8.25h2.25L11.25 8H7.5z"/></symbol><symbol viewBox="0 0 8 15" id="fb" xmlns="http://www.w3.org/2000/svg"><path d="M7.384 1.075C6.614.918 6.023.8 5.214.8 2.887.8 1.96 1.904 1.96 3.876v1.44H.5v2.328h1.46v7.081H4.8v-7.08h2.07l.197-2.329H4.8V4.192c0-.63.06-1.026.966-1.026.336 0 .868.06 1.263.139z"/></symbol><symbol viewBox="0 0 18 18" id="instagram" xmlns="http://www.w3.org/2000/svg"><path d="M8.998.138C5.368.138 1.92-.185.602 3.195.058 4.591.137 6.405.137 9c0 2.278-.073 4.42.465 5.804 1.314 3.382 4.79 3.058 8.394 3.058 3.477 0 7.062.362 8.395-3.058.545-1.41.465-3.196.465-5.804 0-3.462.191-5.697-1.488-7.375-1.7-1.7-3.999-1.487-7.374-1.487h.004zm-.794 1.597c7.574-.012 8.538-.854 8.006 10.843-.189 4.137-3.339 3.683-7.21 3.683-7.06 0-7.264-.202-7.264-7.265 0-7.145.56-7.257 6.468-7.263v.002zm5.524 1.471a1.063 1.063 0 100 2.127 1.063 1.063 0 000-2.127zM8.998 4.45A4.55 4.55 0 109 13.551a4.55 4.55 0 00-.002-9.102zm0 1.597c3.905 0 3.91 5.908 0 5.908-3.904 0-3.91-5.908 0-5.908z"/></symbol><symbol viewBox="0 0 35 55" id="logo" xmlns="http://www.w3.org/2000/svg"><g clip-path="url(#iclip0_1448_11345)"><path d="M33.167 49.027l-4.71 4.754a1.653 1.653 0 01-1.177.495 1.64 1.64 0 01-1.175-.495L6.832 34.33a6.448 6.448 0 01-4.122-1.945 6.56 6.56 0 01-1.835-4.201A6.573 6.573 0 012.233 23.8a6.463 6.463 0 013.88-2.397L26.105 1.219A1.654 1.654 0 0127.28.724a1.641 1.641 0 011.176.495l4.71 4.754a1.67 1.67 0 01.491 1.187 1.683 1.683 0 01-.49 1.187L14.196 27.5l18.97 19.154a1.67 1.67 0 01.491 1.186 1.683 1.683 0 01-.49 1.187z"/><path d="M33.167 49.027l-4.71 4.754a1.653 1.653 0 01-1.177.495 1.64 1.64 0 01-1.175-.495L6.832 34.33a6.448 6.448 0 01-4.122-1.945 6.56 6.56 0 01-1.835-4.201A6.573 6.573 0 012.233 23.8a6.463 6.463 0 013.88-2.397L26.105 1.219A1.654 1.654 0 0127.28.724a1.641 1.641 0 011.176.495l4.71 4.754a1.67 1.67 0 01.491 1.187 1.683 1.683 0 01-.49 1.187L14.196 27.5l18.97 19.154a1.67 1.67 0 01.491 1.186 1.683 1.683 0 01-.49 1.187z"/><path d="M7.306 23.515a4.262 4.262 0 012.912 1.325 4.34 4.34 0 011.192 2.99 4.34 4.34 0 01-1.192 2.99 4.244 4.244 0 01-6.05.125 4.353 4.353 0 010-6.231 4.244 4.244 0 013.138-1.2zm6.034 1.99a6.533 6.533 0 00-1.693-2.492 6.455 6.455 0 00-2.622-1.457L27.248 3.193l4.1 4.137L13.34 25.504zM31.319 47.67l-4.1 4.137L9.55 33.937a6.469 6.469 0 002.478-1.665 6.548 6.548 0 001.477-2.61L31.32 47.67z"/></g><defs><clipPath id="iclip0_1448_11345"><path d="M0 0h34.375v55H0z"/></clipPath></defs></symbol><symbol viewBox="0 0 24 24" id="slider-arrow-left" xmlns="http://www.w3.org/2000/svg"><g clip-path="url(#jclip0_1243_5615)"><path d="M.275 11.336l4.9-4.876a.938.938 0 011.322 1.33l-3.289 3.272h19.854a.937.937 0 110 1.876H3.209l3.29 3.272a.937.937 0 11-1.324 1.33L.276 12.665l-.001-.001a.938.938 0 010-1.328z"/></g><defs><clipPath id="jclip0_1243_5615"><path transform="matrix(-1 0 0 1 24 0)" d="M0 0h24v24H0z"/></clipPath></defs></symbol><symbol viewBox="0 0 24 24" id="slider-arrow-right" xmlns="http://www.w3.org/2000/svg"><g clip-path="url(#kclip0_1243_5611)"><path d="M23.725 11.336l-4.9-4.876a.938.938 0 00-1.322 1.33l3.289 3.272H.937a.937.937 0 100 1.876h19.855l-3.29 3.272a.937.937 0 101.324 1.33l4.898-4.875.001-.001a.938.938 0 000-1.328z"/></g><defs><clipPath id="kclip0_1243_5611"><path d="M0 0h24v24H0z"/></clipPath></defs></symbol><symbol viewBox="0 0 18 18" id="tel" xmlns="http://www.w3.org/2000/svg"><path d="M16.534 13.14c-.492-.412-3.375-2.238-3.855-2.154-.225.04-.397.231-.857.78a6.56 6.56 0 01-.7.759 6.049 6.049 0 01-1.336-.495A8.269 8.269 0 015.97 8.213a6.05 6.05 0 01-.495-1.336c.234-.253.488-.487.758-.7.55-.46.741-.631.781-.857.084-.48-1.743-3.363-2.154-3.855-.172-.203-.329-.34-.529-.34-.58 0-3.206 3.247-3.206 3.668 0 .034.056 3.414 4.325 7.757 4.343 4.269 7.723 4.325 7.757 4.325.421 0 3.668-2.626 3.668-3.206 0-.2-.137-.357-.341-.529zm-3.596-4.702h1.124a4.505 4.505 0 00-4.5-4.5v1.124a3.378 3.378 0 013.376 3.375z"/><path d="M15.75 8.438h1.125a7.321 7.321 0 00-7.313-7.313V2.25a6.195 6.195 0 016.188 6.188z"/></symbol><symbol viewBox="0 0 16 12" id="telegram" xmlns="http://www.w3.org/2000/svg"><path d="M14.537.204l-.248.09L.819 5.147a.451.451 0 00.04.873l3.486.955.65 1.909.651 1.909a.62.62 0 00.998.222l1.802-1.702 3.537 2.399c.432.295 1.049.076 1.16-.41L15.484.953c.115-.513-.425-.935-.948-.748zm-1.72 2.298L6.733 7.477l-.287.234a.31.31 0 00-.114.202l-.064.529-.176 1.486a.068.068 0 11-.137.011L5.46 8.454l-.51-1.52a.308.308 0 01.146-.364l6.333-3.63 1.192-.682c.173-.101.35.119.198.244z"/></symbol><symbol viewBox="0 0 16 16" id="whatsapp" xmlns="http://www.w3.org/2000/svg"><path d="M13.29 2.709a7.441 7.441 0 00-11.92 8.608L.58 15.15a.283.283 0 00.045.223.288.288 0 00.306.118l3.757-.89A7.44 7.44 0 0013.29 2.709zm-1.17 9.349a5.828 5.828 0 01-6.712 1.09l-.524-.258-2.303.545.007-.029.477-2.318-.256-.506a5.825 5.825 0 119.31 1.476z"/><path d="M11.915 10.358c-.283.444-.728.988-1.289 1.123-.982.238-2.489.008-4.364-1.74l-.023-.02C4.591 8.192 4.162 6.92 4.266 5.91c.057-.573.535-1.091.937-1.43a.536.536 0 01.838.193l.607 1.364a.533.533 0 01-.067.545l-.306.398a.528.528 0 00-.048.59c.172.3.584.744 1.04 1.154.513.464 1.082.888 1.442 1.033a.52.52 0 00.571-.12l.356-.359a.545.545 0 01.532-.136l1.441.409a.546.546 0 01.306.806z"/></symbol><symbol viewBox="0 0 16 12" id="youtube" xmlns="http://www.w3.org/2000/svg"><path d="M15.15 2.392c-.3-.923-1.293-1.482-2.207-1.61a46.67 46.67 0 00-9.886 0c-.913.128-1.909.681-2.206 1.61a18.74 18.74 0 000 7.218c.3.921 1.293 1.482 2.206 1.61 3.286.35 6.6.35 9.886 0 .914-.128 1.91-.682 2.207-1.61a18.74 18.74 0 000-7.218zM6.206 8.875v-5.75L10.886 6l-4.68 2.875z"/></symbol></svg>