<?xml version="1.0" encoding="utf-8"?><svg xmlns="http://www.w3.org/2000/svg" xmlns:xlink="http://www.w3.org/1999/xlink"><symbol viewBox="0 0 14 8" id="accordion-arrow" xmlns="http://www.w3.org/2000/svg"><path d="M-.01.725L.713-.01 7 6.386 13.287-.01l.723.735-6.287 6.397.15.152-.723.736L7 7.858l-.15.152-.723-.736.15-.152z"/></symbol><symbol viewBox="0 0 12 7" id="arrow-right" xmlns="http://www.w3.org/2000/svg"><path d="M0 3.998v-1h10.206L8.016.807l.793-.793 3.176 3.176-.31.308.31.31-3.176 3.175-.794-.794L10.206 4z"/></symbol><symbol viewBox="0 0 18 13" id="arrow2-right" xmlns="http://www.w3.org/2000/svg"><path d="M0 6.999V5.998h16.206L11.015.808l.794-.794 6.176 6.176-.31.308.31.31-6.176 6.175-.794-.793 5.19-5.191z"/></symbol><symbol viewBox="0 0 344.96 344.96" id="check" xmlns="http://www.w3.org/2000/svg"><g data-name="Слой 2"><path d="M321.85 86.24l-40-23.11-23.1-40H212.5L172.48 0l-40 23.11H86.24l-23.11 40-40 23.1v46.21L0 172.48l23.11 40v46.21l40 23.11 23.11 40h46.21l40 23.1 40-23.11h46.21l23.11-40 40-23.11V212.5l23.11-40-23.11-40V86.24zM156.91 243.07a16.79 16.79 0 01-23.34 0l-50.45-50.44a16.19 16.19 0 010-22.89l13.35-13.35a16.19 16.19 0 0122.89 0l25.87 25.87 80.34-80.35a16.19 16.19 0 0122.89 0l13.35 13.35a16.19 16.19 0 010 22.89z" data-name="Capa 1"/></g></symbol><symbol viewBox="0 0 8 15" id="fb" xmlns="http://www.w3.org/2000/svg"><path d="M7.384 1.075C6.614.918 6.023.8 5.214.8 2.887.8 1.96 1.904 1.96 3.876v1.44H.5v2.328h1.46v7.081H4.8v-7.08h2.07l.197-2.329H4.8V4.192c0-.63.06-1.026.966-1.026.336 0 .868.06 1.263.139z"/></symbol><symbol viewBox="0 0 16 16" id="instagram" xmlns="http://www.w3.org/2000/svg"><path d="M2.909-.001H13.09A2.909 2.909 0 0116 2.908V13.09a2.909 2.909 0 01-2.91 2.909H2.91A2.909 2.909 0 010 13.089V2.909a2.909 2.909 0 012.91-2.91zM.727 13.817c0 .803.651 1.455 1.455 1.455h11.636c.803 0 1.454-.652 1.454-1.455V6.544h-2.39a5.094 5.094 0 11-9.765 0H.727zM4.594 8a3.406 3.406 0 106.812 0 3.406 3.406 0 00-6.812 0zm6.312-4.828v.218c0 .94.763 1.704 1.703 1.704h.22c.94 0 1.702-.763 1.702-1.704v-.218c0-.94-.762-1.704-1.703-1.704h-.219c-.94 0-1.703.763-1.703 1.704z"/></symbol></svg>