<?xml version="1.0" encoding="utf-8"?><svg xmlns="http://www.w3.org/2000/svg" xmlns:xlink="http://www.w3.org/1999/xlink"><symbol viewBox="0 0 14 8" id="accordion-arrow" xmlns="http://www.w3.org/2000/svg"><path d="M-.01.725.713-.01 7 6.386 13.287-.01l.723.735-6.287 6.397.15.152-.723.736L7 7.858l-.15.152-.723-.736.15-.152z"/></symbol><symbol viewBox="0 0 28 16" id="arrow-left" xmlns="http://www.w3.org/2000/svg"><path d="M27 9a1 1 0 1 0 0-2v2ZM.293 7.293a1 1 0 0 0 0 1.414l6.364 6.364a1 1 0 0 0 1.414-1.414L2.414 8l5.657-5.657A1 1 0 0 0 6.657.93L.293 7.293ZM27 7H1v2h26V7Z"/></symbol><symbol viewBox="0 0 12 7" id="arrow-right" xmlns="http://www.w3.org/2000/svg"><path d="M0 3.998v-1h10.206L8.016.807l.793-.793 3.176 3.176-.31.308.31.31-3.176 3.175-.794-.794L10.206 4z"/></symbol><symbol viewBox="0 0 18 13" id="arrow2-right" xmlns="http://www.w3.org/2000/svg"><path d="M0 6.999V5.998h16.206L11.015.808l.794-.794 6.176 6.176-.31.308.31.31-6.176 6.175-.794-.793 5.19-5.191z"/></symbol><symbol viewBox="0 0 24 24" id="calc" xmlns="http://www.w3.org/2000/svg"><path d="M23.5 11.5c.28 0 .5.22.5.5s-.22.5-.5.5H23v-1h.5Zm-11 0H23v1H12.5v-1Z"/><path d="M21.5 24H12c.28 0 .5-.22.5-.5V23h9c.83 0 1.5-.67 1.5-1.5v-9h.5c.28 0 .5-.22.5-.5v9.5a2.5 2.5 0 0 1-2.5 2.5ZM24 2.5V12c0-.28-.22-.5-.5-.5H23v-9c0-.83-.67-1.5-1.5-1.5h-9V.5c0-.28-.22-.5-.5-.5h9.5A2.5 2.5 0 0 1 24 2.5Z"/><path d="M20 6c.28 0 .5.22.5.5s-.22.5-.5.5h-4c-.28 0-.5-.22-.5-.5s.22-.5.5-.5h4Zm0 10c.28 0 .5.22.5.5s-.22.5-.5.5h-4c-.28 0-.5-.22-.5-.5s.22-.5.5-.5h4Zm0 3c.28 0 .5.22.5.5s-.22.5-.5.5h-4c-.28 0-.5-.22-.5-.5s.22-.5.5-.5h4Zm-7.5 4v.5c0 .28-.22.5-.5.5s-.5-.22-.5-.5V23h1Zm-1-10.5h1V23h-1V12.5Zm0-1h1v1h-1v-1Zm0-10.5h1v10.5h-1V1Zm1-.5V1h-1V.5c0-.28.22-.5.5-.5s.5.22.5.5ZM1 11.5h10.5v1H1v-1ZM8 6c.28 0 .5.22.5.5S8.28 7 8 7H6.5V6H8Zm-.15 13.15c.2.19.2.51 0 .7a.47.47 0 0 1-.35.15.47.47 0 0 1-.35-.15L6 18.7l.7-.7 1.15 1.15Zm-.7-3c.19-.2.51-.2.7 0 .2.19.2.51 0 .7L6.7 18l-.7-.7 1.15-1.15Zm-1.853 1.849.7-.7.7.7-.7.7-.7-.7ZM6.5 7v1.5c0 .28-.22.5-.5.5s-.5-.22-.5-.5V7h1Zm-1-1h1v1h-1V6Zm1-1.5V6h-1V4.5c0-.28.22-.5.5-.5s.5.22.5.5Z"/><path d="m6 17.3-.7.7-1.15-1.15c-.2-.19-.2-.51 0-.7.19-.2.51-.2.7 0L6 17.3ZM5.5 6v1H4c-.28 0-.5-.22-.5-.5S3.72 6 4 6h1.5Zm-.65 13.85a.47.47 0 0 1-.35.15.47.47 0 0 1-.35-.15c-.2-.19-.2-.51 0-.7L5.3 18l.7.7-1.15 1.15ZM1 11.5v1H.5c-.28 0-.5-.22-.5-.5s.22-.5.5-.5H1Z"/><path d="M0 2.5A2.5 2.5 0 0 1 2.5 0H12c-.28 0-.5.22-.5.5V1h-9C1.67 1 1 1.67 1 2.5v9H.5c-.28 0-.5.22-.5.5V2.5Zm1 19c0 .83.67 1.5 1.5 1.5h9v.5c0 .28.22.5.5.5H2.5A2.5 2.5 0 0 1 0 21.5V12c0 .28.22.5.5.5H1v9Z"/></symbol><symbol viewBox="0 0 344.96 344.96" id="check" xmlns="http://www.w3.org/2000/svg"><g data-name="Слой 2"><path d="m321.85 86.24-40-23.11-23.1-40H212.5L172.48 0l-40 23.11H86.24l-23.11 40-40 23.1v46.21L0 172.48l23.11 40v46.21l40 23.11 23.11 40h46.21l40 23.1 40-23.11h46.21l23.11-40 40-23.11V212.5l23.11-40-23.11-40V86.24ZM156.91 243.07a16.79 16.79 0 0 1-23.34 0l-50.45-50.44a16.19 16.19 0 0 1 0-22.89l13.35-13.35a16.19 16.19 0 0 1 22.89 0l25.87 25.87 80.34-80.35a16.19 16.19 0 0 1 22.89 0l13.35 13.35a16.19 16.19 0 0 1 0 22.89Z" data-name="Capa 1"/></g></symbol><symbol viewBox="0 0 500 500" id="dobitsya_vysokoy" xmlns="http://www.w3.org/2000/svg"><g clip-path="url(#aga)"><path d="M238.688 302.051a5.685 5.685 0 0 0 0-8.029 5.676 5.676 0 0 0-8.02 0 5.69 5.69 0 0 0 0 8.029 5.676 5.676 0 0 0 8.02 0ZM211.846 167.4c0 34.407 27.969 62.402 62.349 62.402 34.379 0 62.349-27.995 62.349-62.402s-27.97-62.4-62.349-62.4c-34.38 0-62.349 27.993-62.349 62.4Zm113.363 0c0 28.152-22.885 51.056-51.014 51.056-28.13 0-51.014-22.904-51.014-51.056 0-28.15 22.884-51.054 51.014-51.054 28.129 0 51.014 22.904 51.014 51.054Z"/><path d="M170.572 393.85a5.662 5.662 0 0 0 7.999.046l27.48-27.095c4.669-4.672 6.089-11.59 4.036-17.603l5.911-5.706a16.897 16.897 0 0 1 11.802-4.772h75.352c13.368 0 26.003-5.138 35.582-14.467.394-.384-2.993 3.608 51.406-61.461 8.068-9.553 6.861-23.898-2.694-31.982-9.494-8.008-23.717-6.858-31.807 2.531l-33.447 34.405c-4.224-5.202-10.664-8.445-17.623-8.445h-63.206c-8.994-3.766-18.537-5.672-28.384-5.672-27.294 0-51.127 12.617-63.917 36.272a16.922 16.922 0 0 0-15.16 4.701l-26.964 27.066a5.678 5.678 0 0 0-.009 8.002l63.643 64.18Zm42.405-128.877c8.682 0 17.075 1.749 24.953 5.198a5.654 5.654 0 0 0 2.273.477h64.366c6.146 0 11.337 5.016 11.337 11.344 0 6.257-5.085 11.347-11.337 11.347h-46.246a5.67 5.67 0 0 0-5.667 5.672 5.67 5.67 0 0 0 5.667 5.672h46.246c12.502 0 22.672-10.179 22.672-22.691 0-.997-.071-1.986-.199-2.966 32.355-33.285 36.917-37.962 37.112-38.195 4.04-4.772 11.211-5.377 15.982-1.352 4.775 4.041 5.379 11.213 1.328 16.012l-50.839 60.826c-7.423 7.133-17.17 11.059-27.473 11.059H227.8a28.17 28.17 0 0 0-19.676 7.953l-4.817 4.652-44.405-44.439c10.378-19.486 29.852-30.569 54.075-30.569Zm-71.053 37.646c1.869-1.871 4.74-2.207 7.019-.798.981.599-1.836-1.968 49.093 48.933 2.266 2.267 2.144 5.88.031 7.995l-23.427 23.098-55.694-56.165 22.978-23.063Zm124.134-124.462v5.176h19.475v5h-19.475v10.263h-8.859v-10.263h-8.948v-5h8.948v-46.142h24.123c8.012 0 14.269 1.784 18.772 5.351 4.503 3.509 6.755 8.539 6.755 15.088 0 6.609-2.252 11.697-6.755 15.264-4.503 3.509-10.76 5.263-18.772 5.263h-15.264Zm31.931-20.439c0-4.152-1.433-7.339-4.298-9.561-2.866-2.223-6.989-3.334-12.369-3.334h-15.264v26.053h15.264c5.322 0 9.415-1.14 12.281-3.421 2.924-2.339 4.386-5.585 4.386-9.737Z"/></g><defs><clipPath id="aga"><path transform="translate(105 105)" d="M0 0h289.722v290.526H0z"/></clipPath></defs></symbol><symbol viewBox="0 0 12 20" id="facebook" xmlns="http://www.w3.org/2000/svg"><path d="M7.5 8V5c0-.828.672-.75 1.5-.75h1.5V.5h-3A4.5 4.5 0 0 0 3 5v3H0v3.75h3V20h4.5v-8.25h2.25L11.25 8H7.5Z"/></symbol><symbol viewBox="0 0 8 15" id="fb" xmlns="http://www.w3.org/2000/svg"><path d="M7.384 1.075C6.614.918 6.023.8 5.214.8 2.887.8 1.96 1.904 1.96 3.876v1.44H.5v2.328h1.46v7.081H4.8v-7.08h2.07l.197-2.329H4.8V4.192c0-.63.06-1.026.966-1.026.336 0 .868.06 1.263.139z"/></symbol><symbol viewBox="0 0 18 18" id="instagram" xmlns="http://www.w3.org/2000/svg"><path d="M8.998.138C5.368.138 1.92-.185.602 3.195.058 4.591.137 6.405.137 9c0 2.278-.073 4.42.465 5.804 1.314 3.382 4.79 3.058 8.394 3.058 3.477 0 7.062.362 8.395-3.058.545-1.41.465-3.196.465-5.804 0-3.462.191-5.697-1.488-7.375-1.7-1.7-3.999-1.487-7.374-1.487h.004Zm-.794 1.597c7.574-.012 8.538-.854 8.006 10.843-.189 4.137-3.339 3.683-7.21 3.683-7.06 0-7.264-.202-7.264-7.265 0-7.145.56-7.257 6.468-7.263v.002Zm5.524 1.471a1.063 1.063 0 1 0 0 2.127 1.063 1.063 0 0 0 0-2.127ZM8.998 4.45A4.55 4.55 0 1 0 9 13.551a4.55 4.55 0 0 0-.002-9.102Zm0 1.597c3.905 0 3.91 5.908 0 5.908-3.904 0-3.91-5.908 0-5.908Z"/></symbol><symbol viewBox="0 0 20 18" id="load" xmlns="http://www.w3.org/2000/svg"><path d="M19.71 4.971a.665.665 0 0 0-.925.175l-1.357 1.99a8.758 8.758 0 0 0-2.384-4.367A8.757 8.757 0 0 0 8.81.187 8.757 8.757 0 0 0 2.578 2.77c-3.437 3.437-3.437 9.03 0 12.466a8.787 8.787 0 0 0 6.233 2.578c2.257 0 4.514-.86 6.233-2.578a.665.665 0 0 0-.941-.94c-2.918 2.917-7.666 2.917-10.584 0C.6 11.375.6 6.627 3.519 3.71A7.435 7.435 0 0 1 8.81 1.518c1.999 0 3.878.778 5.292 2.192a7.432 7.432 0 0 1 2.07 3.95l-2.361-1.61a.665.665 0 1 0-.75 1.098l3.523 2.403a.662.662 0 0 0 .177.086l.005.002.032.007a.665.665 0 0 0 .711-.269l2.374-3.481a.665.665 0 0 0-.175-.925Z"/></symbol><symbol viewBox="0 0 35 55" id="logo" xmlns="http://www.w3.org/2000/svg"><g clip-path="url(#ala)"><path d="m33.167 49.027-4.71 4.754a1.653 1.653 0 0 1-1.177.495 1.64 1.64 0 0 1-1.175-.495L6.832 34.33a6.448 6.448 0 0 1-4.122-1.945 6.56 6.56 0 0 1-1.835-4.201A6.573 6.573 0 0 1 2.233 23.8a6.463 6.463 0 0 1 3.88-2.397L26.105 1.219A1.654 1.654 0 0 1 27.28.724a1.641 1.641 0 0 1 1.176.495l4.71 4.754a1.67 1.67 0 0 1 .491 1.187 1.683 1.683 0 0 1-.49 1.187L14.196 27.5l18.97 19.154a1.67 1.67 0 0 1 .491 1.186 1.683 1.683 0 0 1-.49 1.187Z"/><path d="m33.167 49.027-4.71 4.754a1.653 1.653 0 0 1-1.177.495 1.64 1.64 0 0 1-1.175-.495L6.832 34.33a6.448 6.448 0 0 1-4.122-1.945 6.56 6.56 0 0 1-1.835-4.201A6.573 6.573 0 0 1 2.233 23.8a6.463 6.463 0 0 1 3.88-2.397L26.105 1.219A1.654 1.654 0 0 1 27.28.724a1.641 1.641 0 0 1 1.176.495l4.71 4.754a1.67 1.67 0 0 1 .491 1.187 1.683 1.683 0 0 1-.49 1.187L14.196 27.5l18.97 19.154a1.67 1.67 0 0 1 .491 1.186 1.683 1.683 0 0 1-.49 1.187Z"/><path d="M7.306 23.515a4.262 4.262 0 0 1 2.912 1.325 4.34 4.34 0 0 1 1.192 2.99 4.34 4.34 0 0 1-1.192 2.99 4.244 4.244 0 0 1-6.05.125 4.353 4.353 0 0 1 0-6.231 4.244 4.244 0 0 1 3.138-1.2Zm6.034 1.99a6.533 6.533 0 0 0-1.693-2.492 6.455 6.455 0 0 0-2.622-1.457L27.248 3.193l4.1 4.137L13.34 25.504ZM31.319 47.67l-4.1 4.137L9.55 33.937a6.469 6.469 0 0 0 2.478-1.665 6.548 6.548 0 0 0 1.477-2.61L31.32 47.67Z"/></g><defs><clipPath id="ala"><path d="M0 0h34.375v55H0z"/></clipPath></defs></symbol><symbol viewBox="0 0 20 15" id="mail" xmlns="http://www.w3.org/2000/svg"><path d="M10 10 7.526 7.834.452 13.9c.257.238.604.387.987.387H18.56c.382 0 .728-.149.983-.387l-7.07-6.065L10 10Z"/><path d="M19.548.387A1.439 1.439 0 0 0 18.561 0H1.438C1.057 0 .711.149.454.39L10 8.571 19.548.387ZM0 1.255v11.868l6.904-5.867L0 1.255Zm13.096 6.001L20 13.123V1.25l-6.904 6.006Z"/></symbol><symbol viewBox="0 0 500 500" id="povysit_eff" xmlns="http://www.w3.org/2000/svg"><g clip-path="url(#ana)"><path d="M353.504 355.116h-9.813V212.64c0-6.632-5.395-12.027-12.026-12.027h-21.933c-6.632 0-12.027 5.396-12.027 12.027v142.476H272.79v-77.923c0-6.632-5.395-12.027-12.027-12.027H238.83c-6.631 0-12.026 5.396-12.026 12.027v77.923h-24.916V314.76c0-6.631-5.396-12.026-12.027-12.026h-21.933c-6.631 0-12.026 5.395-12.026 12.026v40.356H145.56a4.474 4.474 0 1 0 0 8.948h207.944a4.474 4.474 0 1 0 0-8.948Zm-160.565 0h-28.09V314.76a3.082 3.082 0 0 1 3.079-3.079h21.932a3.082 3.082 0 0 1 3.079 3.079v40.356Zm70.902 0h-28.09v-77.923a3.082 3.082 0 0 1 3.079-3.079h21.933a3.082 3.082 0 0 1 3.078 3.079v77.923Zm70.903 0h-28.091V212.64a3.082 3.082 0 0 1 3.079-3.079h21.933a3.082 3.082 0 0 1 3.079 3.079v142.476Z"/><path fill-rule="evenodd" clip-rule="evenodd" d="M296.362 212.64c0-7.373 5.996-13.37 13.37-13.37h21.932c7.374 0 13.371 5.996 13.371 13.37v141.133h8.469a5.817 5.817 0 0 1 0 11.634H145.56a5.817 5.817 0 1 1 0-11.634h8.998V314.76c0-7.373 5.996-13.37 13.37-13.37h21.933c7.373 0 13.37 5.996 13.37 13.37v39.013h22.229v-76.58c0-7.374 5.996-13.371 13.37-13.371h21.933c7.373 0 13.37 5.997 13.37 13.371v76.58h22.229V212.64Zm13.37-10.684c-5.89 0-10.683 4.794-10.683 10.684v143.819h-27.603v-79.266c0-5.89-4.794-10.684-10.683-10.684H238.83c-5.889 0-10.683 4.794-10.683 10.684v79.266h-27.603V314.76c0-5.89-4.794-10.683-10.683-10.683h-21.933c-5.89 0-10.683 4.794-10.683 10.683v41.699H145.56a3.131 3.131 0 0 0 0 6.261h207.944a3.13 3.13 0 1 0 0-6.261h-11.156V212.64c0-5.89-4.794-10.684-10.684-10.684h-21.932Zm0 8.948a1.74 1.74 0 0 0-1.736 1.736v141.133H333.4V212.64a1.74 1.74 0 0 0-1.736-1.736h-21.932Zm-4.423 1.736a4.427 4.427 0 0 1 4.423-4.423h21.932a4.427 4.427 0 0 1 4.423 4.423v143.819h-30.778V212.64Zm-66.479 62.817a1.74 1.74 0 0 0-1.736 1.736v76.58h25.404v-76.58a1.74 1.74 0 0 0-1.736-1.736H238.83Zm-4.423 1.736a4.427 4.427 0 0 1 4.423-4.423h21.932a4.427 4.427 0 0 1 4.423 4.423v79.266h-30.778v-79.266Zm-66.48 35.832c-.955 0-1.735.779-1.735 1.735v39.013h25.404V314.76c0-.956-.78-1.735-1.736-1.735h-21.933Zm-4.422 1.735a4.425 4.425 0 0 1 4.422-4.422h21.933a4.426 4.426 0 0 1 4.423 4.422v41.699h-30.778V314.76Z"/><path d="M343.68 139.705a4.46 4.46 0 0 0-4.694-4.694c-.072-.003-.143-.011-.217-.011h-27.067a4.474 4.474 0 0 0 0 8.948h16.713l-44.227 44.227-16.678-16.678a4.475 4.475 0 0 0-6.327 0l-80.426 80.426a4.475 4.475 0 0 0 3.163 7.637 4.46 4.46 0 0 0 3.164-1.31l77.262-77.263 16.679 16.678a4.474 4.474 0 0 0 6.327 0l47.391-47.39v15.126a4.474 4.474 0 1 0 8.948 0v-25.48c0-.073-.008-.144-.011-.216Z"/><path fill-rule="evenodd" clip-rule="evenodd" d="M305.885 139.474a5.817 5.817 0 0 1 5.817-5.818h27.067c.081 0 .151.004.194.007l.032.002a5.8 5.8 0 0 1 6.03 6.03l.002.032c.003.043.007.113.007.194v25.48a5.817 5.817 0 0 1-11.635 0v-11.883l-45.097 45.097a5.818 5.818 0 0 1-8.228 0l-15.728-15.729-76.313 76.313a5.797 5.797 0 0 1-4.113 1.704 5.801 5.801 0 0 1-4.113-1.702l-.001-.001a5.819 5.819 0 0 1 0-8.227l80.426-80.426a5.818 5.818 0 0 1 8.227 0l15.729 15.728 40.984-40.984h-13.47a5.817 5.817 0 0 1-5.817-5.817Zm5.817-3.131a3.13 3.13 0 0 0 0 6.261h19.957l-47.471 47.471-17.629-17.628a3.13 3.13 0 0 0-4.427 0l-80.426 80.426a3.132 3.132 0 0 0 2.214 5.344c.803 0 1.602-.306 2.213-.917l78.213-78.213 17.628 17.628a3.132 3.132 0 0 0 4.428 0l49.684-49.684v18.37a3.13 3.13 0 1 0 6.261 0v-25.477l-.002-.026-.003-.053-.005-.083-.002-.063.003-.063a3.113 3.113 0 0 0-3.283-3.284l-.064.003-.064-.002-.082-.005-.053-.003-.026-.002h-27.064Z"/><path d="M168.841 275.17a4.474 4.474 0 1 0 0-8.947 4.474 4.474 0 0 0 0 8.947Z"/><path fill-rule="evenodd" clip-rule="evenodd" d="M168.841 267.566a3.13 3.13 0 1 0-.001 6.26 3.13 3.13 0 0 0 .001-6.26Zm-5.818 3.13a5.817 5.817 0 1 1 11.635 0 5.817 5.817 0 0 1-11.635 0Z"/></g><defs><clipPath id="ana"><path transform="translate(135 135)" d="M0 0h229.062v229.062H0z"/></clipPath></defs></symbol><symbol viewBox="0 0 75 66" id="result-arrow" xmlns="http://www.w3.org/2000/svg"><path d="M67.157.246a1 1 0 0 0-1.411.097L59.835 7.13a1 1 0 1 0 1.508 1.314l5.254-6.033 6.033 5.254a1 1 0 1 0 1.314-1.508L67.157.247ZM.117 63.86c29.619 4.7 47.448.837 57.377-10.448C67.36 42.196 69.088 23.985 67.498.932l-1.996.137c1.593 23.076-.243 40.489-9.51 51.022-9.205 10.462-26.08 14.471-55.56 9.794L.117 63.86Z"/></symbol><symbol viewBox="0 0 20 20" id="search" xmlns="http://www.w3.org/2000/svg"><path d="m19.756 18.578-5.688-5.688a7.878 7.878 0 0 0 1.765-4.973C15.833 3.552 12.281 0 7.917 0 3.552 0 0 3.552 0 7.917s3.552 7.916 7.917 7.916a7.878 7.878 0 0 0 4.973-1.765l5.687 5.688a.831.831 0 0 0 1.179 0 .832.832 0 0 0 0-1.178Zm-11.84-4.411a6.256 6.256 0 0 1-6.25-6.25 6.256 6.256 0 0 1 6.25-6.25 6.256 6.256 0 0 1 6.25 6.25 6.256 6.256 0 0 1-6.25 6.25Z"/></symbol><symbol viewBox="0 0 24 24" id="slider-arrow-left" xmlns="http://www.w3.org/2000/svg"><g clip-path="url(#aqa)"><path d="m.275 11.336 4.9-4.876a.938.938 0 0 1 1.322 1.33l-3.289 3.272h19.854a.937.937 0 1 1 0 1.876H3.209l3.29 3.272a.937.937 0 1 1-1.324 1.33L.276 12.665l-.001-.001a.938.938 0 0 1 0-1.328Z"/></g><defs><clipPath id="aqa"><path transform="matrix(-1 0 0 1 24 0)" d="M0 0h24v24H0z"/></clipPath></defs></symbol><symbol viewBox="0 0 24 24" id="slider-arrow-right" xmlns="http://www.w3.org/2000/svg"><g clip-path="url(#ara)"><path d="m23.725 11.336-4.9-4.876a.938.938 0 0 0-1.322 1.33l3.289 3.272H.937a.937.937 0 1 0 0 1.876h19.855l-3.29 3.272a.937.937 0 1 0 1.324 1.33l4.898-4.875.001-.001a.938.938 0 0 0 0-1.328Z"/></g><defs><clipPath id="ara"><path d="M0 0h24v24H0z"/></clipPath></defs></symbol><symbol viewBox="0 0 500 500" id="sokratit_sroki" xmlns="http://www.w3.org/2000/svg"><path d="M402.5 250c0 61.503-50.514 111.5-113 111.5s-113-49.997-113-111.5 50.514-111.5 113-111.5 113 49.997 113 111.5Z"/><rect x="267" y="188" width="14" height="76" rx="7"/><rect x="350" y="255" width="13" height="83" rx="6.5" transform="rotate(90 350 255)"/><rect x="148" y="223" width="12" height="40" rx="6" transform="rotate(90 148 223)"/><rect x="148" y="277" width="13" height="40" rx="6.5" transform="rotate(90 148 277)"/><rect x="148" y="250" width="13" height="63" rx="6.5" transform="rotate(90 148 250)"/></symbol><symbol viewBox="0 0 12 13" id="star" xmlns="http://www.w3.org/2000/svg"><g clip-path="url(#ata)"><path d="M11.969 5.103a.637.637 0 0 0-.549-.438L7.956 4.35 6.587 1.145a.638.638 0 0 0-1.173 0L4.044 4.35.58 4.665A.639.639 0 0 0 .217 5.78l2.619 2.296-.772 3.4a.638.638 0 0 0 .949.69L6 10.38l2.987 1.786a.637.637 0 0 0 .95-.69l-.773-3.4 2.619-2.296a.639.639 0 0 0 .186-.678Z"/></g><defs><clipPath id="ata"><path transform="translate(0 .5)" d="M0 0h12v12H0z"/></clipPath></defs></symbol><symbol viewBox="0 0 500 500" id="svesti_k_minimumu" xmlns="http://www.w3.org/2000/svg"><g clip-path="url(#aua)"><path d="M302.734 100a5.86 5.86 0 0 0-5.859 5.859v26.953a5.86 5.86 0 0 0 11.719 0v-26.953a5.86 5.86 0 0 0-5.86-5.859ZM167.969 282.812a5.862 5.862 0 0 0-5.86 5.86 5.862 5.862 0 0 0 5.86 5.859 5.861 5.861 0 0 0 5.859-5.859 5.862 5.862 0 0 0-5.859-5.86Z"/><path d="M384.766 271.096c0-12.924-10.514-23.438-23.438-23.438h-43.741c6.771-17.345 9.512-37.762 8.984-55.936-.101-3.468-.234-5.474-.414-6.736-.303-12.661-10.698-22.875-23.423-22.875-12.923 0-23.437 10.514-23.437 23.438v5.859c0 37.058-47.586 57.88-83.499 66.808-2.715-6.207-8.913-10.558-16.11-10.558h-58.594a5.86 5.86 0 0 0-5.86 5.86v140.624a5.86 5.86 0 0 0 5.86 5.86h58.594c7.149 0 13.311-4.293 16.055-10.435 2.973.763 5.734 1.483 8.282 2.149 20.458 5.343 31.727 8.286 59.135 8.286h63.012c12.923 0 23.437-10.514 23.437-23.438 0-4.818-1.463-9.301-3.966-13.03 9.051-3.166 15.685-11.814 15.685-22.126 0-4.801-1.427-9.298-3.923-13.044 9.011-3.171 15.642-11.8 15.642-22.112 0-4.819-1.463-9.301-3.967-13.03 9.052-3.166 15.686-11.814 15.686-22.126ZM185.547 382.424a5.866 5.866 0 0 1-5.859 5.859h-52.735V259.377h52.735a5.866 5.866 0 0 1 5.859 5.859v117.188Zm175.781-99.61h-29.297a5.86 5.86 0 0 0 0 11.719h17.578c6.462 0 11.719 5.257 11.719 11.719 0 6.472-5.246 11.719-11.719 11.719h-29.297a5.86 5.86 0 0 0 0 11.718h17.579c6.385 0 11.718 5.101 11.718 11.719 0 6.472-5.246 11.719-11.718 11.719h-29.297a5.86 5.86 0 0 0 0 11.719h17.578c6.462 0 11.719 5.257 11.719 11.718 0 6.462-5.257 11.719-11.719 11.719H263.16c-25.902 0-36.019-2.642-56.174-7.905-2.952-.771-6.191-1.617-9.72-2.517V269.938c42.403-10.1 93.75-34.754 93.75-78.53v-5.859c0-6.462 5.257-11.719 11.718-11.719 6.45 0 11.707 5.249 11.719 11.701v.018c0 2.546 3.178 33.798-9.566 62.109h-19.731a5.86 5.86 0 0 0 0 11.719h76.172c6.462 0 11.719 5.257 11.719 11.719 0 6.472-5.247 11.718-11.719 11.718Z"/><path d="M167.969 306.25a5.86 5.86 0 0 0-5.86 5.859v46.875a5.86 5.86 0 0 0 11.719 0v-46.875a5.86 5.86 0 0 0-5.859-5.859Zm87.89-132.422h-23.437a5.86 5.86 0 0 0 0 11.719h23.437a5.86 5.86 0 0 0 0-11.719Zm117.188 0h-23.438a5.86 5.86 0 0 0 0 11.719h23.438a5.86 5.86 0 0 0 0-11.719Zm-16.453-48.001a5.86 5.86 0 0 0-8.287 0l-16.569 16.57a5.859 5.859 0 1 0 8.286 8.287l16.57-16.57a5.86 5.86 0 0 0 0-8.287Zm-82.863 16.57-16.57-16.57a5.86 5.86 0 0 0-8.287 8.287l16.57 16.57a5.86 5.86 0 0 0 8.287-8.287Z"/></g><defs><clipPath id="aua"><path transform="translate(100 100)" d="M0 0h300v300H0z"/></clipPath></defs></symbol><symbol viewBox="0 0 18 18" id="tel" xmlns="http://www.w3.org/2000/svg"><path d="M16.534 13.14c-.492-.412-3.375-2.238-3.855-2.154-.225.04-.397.231-.857.78a6.56 6.56 0 0 1-.7.759 6.049 6.049 0 0 1-1.336-.495A8.269 8.269 0 0 1 5.97 8.213a6.05 6.05 0 0 1-.495-1.336c.234-.253.488-.487.758-.7.55-.46.741-.631.781-.857.084-.48-1.743-3.363-2.154-3.855-.172-.203-.329-.34-.529-.34-.58 0-3.206 3.247-3.206 3.668 0 .034.056 3.414 4.325 7.757 4.343 4.269 7.723 4.325 7.757 4.325.421 0 3.668-2.626 3.668-3.206 0-.2-.137-.357-.341-.529Zm-3.596-4.702h1.124a4.505 4.505 0 0 0-4.5-4.5v1.124a3.378 3.378 0 0 1 3.376 3.375Z"/><path d="M15.75 8.438h1.125a7.321 7.321 0 0 0-7.313-7.313V2.25a6.195 6.195 0 0 1 6.188 6.188Z"/></symbol><symbol viewBox="0 0 18 18" id="tel2" xmlns="http://www.w3.org/2000/svg"><g clip-path="url(#awa)"><path d="m17.51 13.21-2.512-2.512c-.897-.897-2.422-.538-2.781.628-.27.808-1.166 1.256-1.974 1.077-1.794-.449-4.216-2.781-4.665-4.665-.269-.808.27-1.705 1.077-1.974 1.166-.359 1.525-1.884.628-2.781L4.77.471c-.718-.628-1.794-.628-2.422 0L.644 2.176C-1.061 3.97.824 8.725 5.04 12.94s8.971 6.19 10.765 4.396l1.705-1.705c.628-.717.628-1.794 0-2.422Z"/></g><defs><clipPath id="awa"><path d="M0 0h18v18H0z"/></clipPath></defs></symbol><symbol viewBox="0 0 16 12" id="telegram" xmlns="http://www.w3.org/2000/svg"><path d="m14.537.204-.248.09L.819 5.147a.451.451 0 0 0 .04.873l3.486.955.65 1.909.651 1.909a.62.62 0 0 0 .998.222l1.802-1.702 3.537 2.399c.432.295 1.049.076 1.16-.41L15.484.953c.115-.513-.425-.935-.948-.748Zm-1.72 2.298L6.733 7.477l-.287.234a.31.31 0 0 0-.114.202l-.064.529-.176 1.486a.068.068 0 1 1-.137.011L5.46 8.454l-.51-1.52a.308.308 0 0 1 .146-.364l6.333-3.63 1.192-.682c.173-.101.35.119.198.244Z"/></symbol><symbol viewBox="0 0 18 18" id="user" xmlns="http://www.w3.org/2000/svg"><g clip-path="url(#aya)"><path d="M8.872 8.67a4.195 4.195 0 0 0 3.065-1.27 4.195 4.195 0 0 0 1.27-3.065c0-1.19-.427-2.222-1.27-3.065A4.196 4.196 0 0 0 8.872 0a4.195 4.195 0 0 0-3.065 1.27 4.195 4.195 0 0 0-1.27 3.065c0 1.192.427 2.223 1.27 3.066a4.196 4.196 0 0 0 3.065 1.27Zm7.586 5.171c-.025-.35-.074-.733-.146-1.137a8.952 8.952 0 0 0-.28-1.144 5.645 5.645 0 0 0-.47-1.066 4.027 4.027 0 0 0-.709-.924 3.125 3.125 0 0 0-1.018-.64 3.52 3.52 0 0 0-1.3-.235c-.184 0-.362.075-.705.299-.211.138-.458.297-.734.473-.236.15-.555.291-.95.418a3.772 3.772 0 0 1-1.161.188 3.76 3.76 0 0 1-1.162-.188 4.196 4.196 0 0 1-.949-.418c-.273-.174-.52-.334-.735-.473-.342-.224-.52-.3-.704-.3-.468 0-.905.08-1.3.236a3.123 3.123 0 0 0-1.018.64 4.025 4.025 0 0 0-.709.924 5.659 5.659 0 0 0-.47 1.066 8.98 8.98 0 0 0-.28 1.144c-.072.403-.121.786-.145 1.138-.024.344-.036.701-.036 1.063 0 .94.298 1.7.887 2.26.582.554 1.352.835 2.288.835h8.667c.936 0 1.705-.28 2.287-.834.59-.56.888-1.322.888-2.262 0-.362-.012-.72-.036-1.063Z"/></g><defs><clipPath id="aya"><path d="M0 0h18v18H0z"/></clipPath></defs></symbol><symbol viewBox="0 0 16 16" id="whatsapp" xmlns="http://www.w3.org/2000/svg"><path d="M13.29 2.709a7.441 7.441 0 0 0-11.92 8.608L.58 15.15a.283.283 0 0 0 .045.223.288.288 0 0 0 .306.118l3.757-.89A7.44 7.44 0 0 0 13.29 2.709Zm-1.17 9.349a5.828 5.828 0 0 1-6.712 1.09l-.524-.258-2.303.545.007-.029.477-2.318-.256-.506a5.825 5.825 0 1 1 9.31 1.476Z"/><path d="M11.915 10.358c-.283.444-.728.988-1.289 1.123-.982.238-2.489.008-4.364-1.74l-.023-.02C4.591 8.192 4.162 6.92 4.266 5.91c.057-.573.535-1.091.937-1.43a.536.536 0 0 1 .838.193l.607 1.364a.533.533 0 0 1-.067.545l-.306.398a.528.528 0 0 0-.048.59c.172.3.584.744 1.04 1.154.513.464 1.082.888 1.442 1.033a.52.52 0 0 0 .571-.12l.356-.359a.545.545 0 0 1 .532-.136l1.441.409a.546.546 0 0 1 .306.806Z"/></symbol><symbol viewBox="0 0 16 16" id="whatsapp-filled" xmlns="http://www.w3.org/2000/svg"><path d="M8 16A8 8 0 1 0 8 0a8 8 0 0 0 0 16Z"/><path d="M11.527 4.473a4.961 4.961 0 0 0-7.947 5.739l-.526 2.555a.19.19 0 0 0 .03.148.191.191 0 0 0 .203.08l2.505-.594a4.96 4.96 0 0 0 5.735-7.928Zm-.78 6.232a3.886 3.886 0 0 1-4.475.728l-.35-.173-1.535.364.005-.02.318-1.545-.17-.337a3.884 3.884 0 1 1 6.206.983Z"/><path d="M10.61 9.572c-.188.296-.486.659-.86.749-.654.158-1.658.005-2.908-1.16l-.016-.014C5.727 8.128 5.442 7.28 5.511 6.607c.038-.382.356-.727.624-.953a.357.357 0 0 1 .56.129l.404.909a.355.355 0 0 1-.045.363l-.204.266a.352.352 0 0 0-.032.393c.115.2.39.496.694.77.342.309.72.591.96.688a.347.347 0 0 0 .382-.08l.237-.24a.364.364 0 0 1 .354-.09l.961.272a.364.364 0 0 1 .204.538Z"/></symbol><symbol viewBox="0 0 16 12" id="youtube" xmlns="http://www.w3.org/2000/svg"><path d="M15.15 2.392c-.3-.923-1.293-1.482-2.207-1.61a46.67 46.67 0 0 0-9.886 0c-.913.128-1.909.681-2.206 1.61a18.74 18.74 0 0 0 0 7.218c.3.921 1.293 1.482 2.206 1.61 3.286.35 6.6.35 9.886 0 .914-.128 1.91-.682 2.207-1.61a18.74 18.74 0 0 0 0-7.218ZM6.206 8.875v-5.75L10.886 6l-4.68 2.875Z"/></symbol><symbol viewBox="0 0 30 30" id="zoom-pl" xmlns="http://www.w3.org/2000/svg"><path d="M16.98 11.73h-2.888V8.842c0-.662-.533-1.196-1.196-1.196-.662 0-1.195.534-1.195 1.196v2.888H8.812c-.662 0-1.195.534-1.195 1.196 0 .662.533 1.195 1.196 1.195H11.7v2.889c0 .662.533 1.195 1.195 1.195.663 0 1.196-.533 1.196-1.195v-2.89h2.888c.663 0 1.196-.533 1.196-1.195s-.54-1.196-1.195-1.196Z"/><path d="M12.902 22.775c-5.443 0-9.855-4.406-9.855-9.85 0-5.443 4.412-9.849 9.855-9.849 5.444 0 9.85 4.412 9.85 9.85 0 5.437-4.412 9.85-9.85 9.85Zm16.102 4.57-6.639-6.638a12.213 12.213 0 0 0 2.79-7.781C25.154 6.158 19.67.668 12.895.668 6.123.668.646 6.158.646 12.926c0 6.767 5.484 12.258 12.257 12.258a12.19 12.19 0 0 0 7.776-2.784l6.638 6.639c.305.31 1.237.463 1.694 0a1.2 1.2 0 0 0-.006-1.693Z"/></symbol></svg>