<svg xmlns="http://www.w3.org/2000/svg" width="64" height="71" viewBox="0 0 64 71"><g><g><path fill="#fff" d="M2.156 54.514l29.094 14.56V31.792l-7.656-3.832v14.798a.773.773 0 0 1-.774.773h-.015a.77.77 0 0 1-.458-.15l-10.493-5.236a.76.76 0 0 1-.51-.717V21.83l-9.188-4.598zm19.875-27.336l-9.156-4.582V36.93l9.156 4.569zM63.295 15.64c.09.183.102.384.049.566v38.572a.778.778 0 0 1-.396.917L32.364 70.999a.747.747 0 0 1-.723.003L1.05 55.694a.778.778 0 0 1-.395-.918v-38.57a.777.777 0 0 1 .546-.973L31.579.03A.771.771 0 0 1 32-.092c.15 0 .296.042.421.122l10.531 5.271a.77.77 0 0 1 .207.104l10.478 5.243a.772.772 0 0 1 .253.127l8.908 4.458a.77.77 0 0 1 .498.406zM32 30.434l28.855-14.44-7.445-3.727-28.855 14.441zm0-28.881L3.144 15.993l8.975 4.491 28.855-14.44zm-9.176 24.289l28.856-14.44-8.975-4.492L13.85 21.35zm9.926 43.231l29.094-14.559V17.232L32.75 31.792zM47.995 47.77a.778.778 0 0 1-.347 1.04l-10.71 5.367a.768.768 0 0 1-1.032-.349.778.778 0 0 1 .347-1.04l10.709-5.367a.768.768 0 0 1 1.033.35zm6.12 2.295a.778.778 0 0 1-.347 1.04l-16.83 8.428a.769.769 0 0 1-1.032-.35.778.778 0 0 1 .347-1.04l16.829-8.428a.769.769 0 0 1 1.033.35z"/></g></g></svg>