<svg xmlns="http://www.w3.org/2000/svg" width="16" height="16" viewBox="0 0 16 16"><g><g><path fill="#699f55" d="M2.909-.001H13.09A2.909 2.909 0 0 1 16 2.908V13.09a2.909 2.909 0 0 1-2.91 2.909H2.91a2.909 2.909 0 0 1-2.91-2.91V2.909a2.909 2.909 0 0 1 2.91-2.91zM.727 13.817c0 .803.651 1.455 1.455 1.455h11.636c.803 0 1.454-.652 1.454-1.455V6.544h-2.39a5.094 5.094 0 1 1-9.765 0H.727zM4.594 8a3.406 3.406 0 1 0 6.812 0 3.406 3.406 0 0 0-6.812 0zm6.312-4.828v.218c0 .94.763 1.704 1.703 1.704h.22c.94 0 1.702-.763 1.702-1.704v-.218c0-.94-.762-1.704-1.703-1.704h-.219c-.94 0-1.703.763-1.703 1.704z"/></g></g></svg>