<svg xmlns="http://www.w3.org/2000/svg" width="48" height="77" viewBox="0 0 48 77"><defs><clipPath id="k12ma"><path fill="#fff" d="M.34 76.322V.678h47.32v75.644zm45.783-11.437L19.736 38.498 46.123 12.11a2.315 2.315 0 0 0 0-3.275l-6.55-6.55a2.316 2.316 0 0 0-3.275 0l-27.81 27.81C4.24 30.81 1 34.495 1 38.947c0 4.8 3.764 8.708 8.499 8.963l26.8 26.8c.904.905 2.37.905 3.274 0l6.55-6.55a2.316 2.316 0 0 0 0-3.275z"/></clipPath></defs><g><g><path fill="#90c336" d="M9.986 33.003a5.945 5.945 0 1 1 0 11.89 5.945 5.945 0 0 1 0-11.89zm8.39 2.743a8.993 8.993 0 0 0-5.95-5.442L37.721 5.01l5.695 5.696zm25.04 30.544l-5.695 5.696-24.617-24.617a8.997 8.997 0 0 0 5.503-5.889z"/></g><g><path fill="#fff" d="M46.123 68.16l-6.55 6.55a2.315 2.315 0 0 1-3.275 0l-26.8-26.8C4.765 47.655 1 43.747 1 38.947c0-4.451 3.24-8.137 7.489-8.852l27.81-27.81a2.316 2.316 0 0 1 3.274 0l6.55 6.55c.905.905.905 2.37 0 3.275L19.736 38.498l26.387 26.387c.904.905.904 2.37 0 3.276z"/><path fill="none" stroke="#90c336" stroke-linecap="round" stroke-linejoin="round" stroke-miterlimit="50" stroke-width="2" d="M46.123 68.16l-6.55 6.55a2.315 2.315 0 0 1-3.275 0l-26.8-26.8C4.765 47.655 1 43.747 1 38.947c0-4.451 3.24-8.137 7.489-8.852l27.81-27.81a2.316 2.316 0 0 1 3.274 0l6.55 6.55c.905.905.905 2.37 0 3.275L19.736 38.498v0l26.387 26.387c.904.905.904 2.37 0 3.276z" clip-path="url(&quot;#k12ma&quot;)"/></g></g></svg>