<svg xmlns="http://www.w3.org/2000/svg" width="46" height="37" viewBox="0 0 46 37"><g><g><path fill="#90c336" d="M.998 35h2.504a.5.5 0 0 1-.002.999H1a.5.5 0 0 1-.002-1zm5 0h16.504a.5.5 0 0 1-.002.999H6a.5.5 0 0 1-.003-1zm31.5 0h8.004a.5.5 0 0 1-.002.999h-8a.5.5 0 0 1-.002-1z"/></g><g><path fill="#90c336" d="M36 9.058v23.94a3 3 0 0 1-3 3h-1v.46a.415.415 0 0 1-.396.531.502.502 0 0 1-.6-.425l-1.873-1.872a.416.416 0 0 1 .588-.588L31 35.385V28.5a.5.5 0 0 1 1 0V35h1a2 2 0 0 0 2-2.001v-9.962a5.842 5.842 0 0 0 0-.075V9h-.467a.5.5 0 0 0-.033-1h-1.967a.5.5 0 0 1-.033 1H30a3 3 0 0 1-3-3v-5H13a2 2 0 0 0-2 2v16.5a.5.5 0 1 1-1 0V3a3 3 0 0 1 3-3h13.94l.78-.01 8.29 8.29zM26.5 37a.502.502 0 0 1-.105-.01.415.415 0 0 1-.396-.531v-.46H13a3 3 0 0 1-3-3V22.5a.5.5 0 0 1 1 0v10.499a2 2 0 0 0 2 2h13v-5.5a.5.5 0 1 1 1 0v5.886l1.282-1.281a.416.416 0 0 1 .587.588l-1.872 1.872A.5.5 0 0 1 26.5 37zM28 1.729v4.27a2 2 0 0 0 2 2h4.27zm-12.5 5.27h7a.5.5 0 1 1 0 1h-7a.5.5 0 0 1 0-1zm0 6h15a.5.5 0 0 1 0 1h-15a.5.5 0 1 1 0-1zm0 6h7a.5.5 0 0 1 0 1h-7a.5.5 0 1 1 0-1zm0 6h7a.5.5 0 0 1 0 1.001h-7a.5.5 0 0 1 0-1zM29 18a5 5 0 1 1 0 10 5 5 0 0 1 0-10zm-4 5a4 4 0 1 0 8 0 4 4 0 0 0-8 0zm4-2A2 2 0 1 1 29 24.998 2 2 0 0 1 29 20.999zm-1 2a1 1 0 1 0 2 0 1 1 0 0 0-2 0z"/></g></g></svg>