<svg width="24" height="24" viewBox="0 0 24 24" fill="none" xmlns="http://www.w3.org/2000/svg">
<path d="M23.5 11.5C23.78 11.5 24 11.72 24 12C24 12.28 23.78 12.5 23.5 12.5H23V11.5H23.5Z" fill="white"/>
<path d="M12.5 11.5H23V12.5H12.5V11.5Z" fill="white"/>
<path d="M21.5 24H12C12.28 24 12.5 23.78 12.5 23.5V23H21.5C22.33 23 23 22.33 23 21.5V12.5H23.5C23.78 12.5 24 12.28 24 12V21.5C24 22.88 22.88 24 21.5 24Z" fill="white"/>
<path d="M24 2.5V12C24 11.72 23.78 11.5 23.5 11.5H23V2.5C23 1.67 22.33 1 21.5 1H12.5V0.5C12.5 0.22 12.28 0 12 0H21.5C22.88 0 24 1.12 24 2.5Z" fill="white"/>
<path d="M20 6C20.28 6 20.5 6.22 20.5 6.5C20.5 6.78 20.28 7 20 7H16C15.72 7 15.5 6.78 15.5 6.5C15.5 6.22 15.72 6 16 6H20Z" fill="white"/>
<path d="M20 16C20.28 16 20.5 16.22 20.5 16.5C20.5 16.78 20.28 17 20 17H16C15.72 17 15.5 16.78 15.5 16.5C15.5 16.22 15.72 16 16 16H20Z" fill="white"/>
<path d="M20 19C20.28 19 20.5 19.22 20.5 19.5C20.5 19.78 20.28 20 20 20H16C15.72 20 15.5 19.78 15.5 19.5C15.5 19.22 15.72 19 16 19H20Z" fill="white"/>
<path d="M12.5 23V23.5C12.5 23.78 12.28 24 12 24C11.72 24 11.5 23.78 11.5 23.5V23H12.5Z" fill="white"/>
<path d="M11.5 12.5H12.5V23H11.5V12.5Z" fill="white"/>
<path d="M11.5 11.5H12.5V12.5H11.5V11.5Z" fill="white"/>
<path d="M11.5 1H12.5V11.5H11.5V1Z" fill="white"/>
<path d="M12.5 0.5V1H11.5V0.5C11.5 0.22 11.72 0 12 0C12.28 0 12.5 0.22 12.5 0.5Z" fill="white"/>
<path d="M1 11.5H11.5V12.5H1V11.5Z" fill="white"/>
<path d="M8 6C8.28 6 8.5 6.22 8.5 6.5C8.5 6.78 8.28 7 8 7H6.5V6H8Z" fill="white"/>
<path d="M7.85 19.15C8.05 19.34 8.05 19.66 7.85 19.85C7.76 19.95 7.63 20 7.5 20C7.37 20 7.24 19.95 7.15 19.85L6 18.7L6.7 18L7.85 19.15Z" fill="white"/>
<path d="M7.15 16.15C7.34 15.95 7.66 15.95 7.85 16.15C8.05 16.34 8.05 16.66 7.85 16.85L6.7 18L6 17.3L7.15 16.15Z" fill="white"/>
<path d="M5.29688 17.999L5.99691 17.299L6.69695 17.999L5.99691 18.6991L5.29688 17.999Z" fill="white"/>
<path d="M6.5 7V8.5C6.5 8.78 6.28 9 6 9C5.72 9 5.5 8.78 5.5 8.5V7H6.5Z" fill="white"/>
<path d="M5.5 6H6.5V7H5.5V6Z" fill="white"/>
<path d="M6.5 4.5V6H5.5V4.5C5.5 4.22 5.72 4 6 4C6.28 4 6.5 4.22 6.5 4.5Z" fill="white"/>
<path d="M6 17.3L5.3 18L4.15 16.85C3.95 16.66 3.95 16.34 4.15 16.15C4.34 15.95 4.66 15.95 4.85 16.15L6 17.3Z" fill="white"/>
<path d="M5.5 6V7H4C3.72 7 3.5 6.78 3.5 6.5C3.5 6.22 3.72 6 4 6H5.5Z" fill="white"/>
<path d="M4.85 19.85C4.76 19.95 4.63 20 4.5 20C4.37 20 4.24 19.95 4.15 19.85C3.95 19.66 3.95 19.34 4.15 19.15L5.3 18L6 18.7L4.85 19.85Z" fill="white"/>
<path d="M1 11.5V12.5H0.5C0.22 12.5 0 12.28 0 12C0 11.72 0.22 11.5 0.5 11.5H1Z" fill="white"/>
<path d="M0 2.5C0 1.12 1.12 0 2.5 0H12C11.72 0 11.5 0.22 11.5 0.5V1H2.5C1.67 1 1 1.67 1 2.5V11.5H0.5C0.22 11.5 0 11.72 0 12V2.5Z" fill="white"/>
<path d="M1 21.5C1 22.33 1.67 23 2.5 23H11.5V23.5C11.5 23.78 11.72 24 12 24H2.5C1.12 24 0 22.88 0 21.5V12C0 12.28 0.22 12.5 0.5 12.5H1V21.5Z" fill="white"/>
</svg>
