<svg width="500" height="500" viewBox="0 0 500 500" fill="none" xmlns="http://www.w3.org/2000/svg">
<g clip-path="url(#clip0_709_74)">
<path d="M238.688 302.051C240.901 299.832 240.901 296.241 238.688 294.022C236.473 291.81 232.885 291.81 230.668 294.022C228.458 296.241 228.458 299.832 230.668 302.051C232.885 304.263 236.473 304.263 238.688 302.051Z" fill="#46A7D9"/>
<path d="M211.846 167.4C211.846 201.807 239.815 229.802 274.195 229.802C308.574 229.802 336.544 201.807 336.544 167.4C336.544 132.993 308.574 105 274.195 105C239.815 105 211.846 132.993 211.846 167.4V167.4ZM325.209 167.4C325.209 195.552 302.324 218.456 274.195 218.456C246.065 218.456 223.181 195.552 223.181 167.4C223.181 139.25 246.065 116.346 274.195 116.346C302.324 116.346 325.209 139.25 325.209 167.4Z" fill="#46A7D9"/>
<path d="M170.572 393.85C172.769 396.066 176.345 396.091 178.571 393.896L206.051 366.801C210.72 362.129 212.14 355.211 210.087 349.198L215.998 343.492C219.18 340.416 223.371 338.72 227.8 338.72H303.152C316.52 338.72 329.155 333.582 338.734 324.253C339.128 323.869 335.741 327.861 390.14 262.792C398.208 253.239 397.001 238.894 387.446 230.81C377.952 222.802 363.729 223.952 355.639 233.341L322.192 267.746C317.968 262.544 311.528 259.301 304.569 259.301H241.363C232.369 255.535 222.826 253.629 212.979 253.629C185.685 253.629 161.852 266.246 149.062 289.901C143.674 288.879 137.991 290.51 133.902 294.602L106.938 321.668C104.737 323.878 104.732 327.453 106.929 329.67L170.572 393.85ZM212.977 264.973C221.659 264.973 230.052 266.722 237.93 270.171C238.648 270.486 239.421 270.648 240.203 270.648H304.569C310.715 270.648 315.906 275.664 315.906 281.992C315.906 288.249 310.821 293.339 304.569 293.339H258.323C255.194 293.339 252.656 295.879 252.656 299.011C252.656 302.145 255.194 304.683 258.323 304.683H304.569C317.071 304.683 327.241 294.504 327.241 281.992C327.241 280.995 327.17 280.006 327.042 279.026C359.397 245.741 363.959 241.064 364.154 240.831C368.194 236.059 375.365 235.454 380.136 239.479C384.911 243.52 385.515 250.692 381.464 255.491L330.625 316.317C323.202 323.45 313.455 327.376 303.152 327.376H227.8C220.416 327.376 213.427 330.202 208.124 335.329L203.307 339.981L158.902 295.542C169.28 276.056 188.754 264.973 212.977 264.973V264.973ZM141.924 302.619C143.793 300.748 146.664 300.412 148.943 301.821C149.924 302.42 147.107 299.853 198.036 350.754C200.302 353.021 200.18 356.634 198.067 358.749L174.64 381.847L118.946 325.682L141.924 302.619Z" fill="#46A7D9"/>
<path d="M266.058 178.157V183.333H285.533V188.333H266.058V198.596H257.199V188.333H248.251V183.333H257.199V137.191H281.322C289.334 137.191 295.591 138.975 300.094 142.542C304.597 146.051 306.849 151.081 306.849 157.63C306.849 164.239 304.597 169.327 300.094 172.894C295.591 176.403 289.334 178.157 281.322 178.157H266.058ZM297.989 157.718C297.989 153.566 296.556 150.379 293.691 148.157C290.825 145.934 286.702 144.823 281.322 144.823H266.058V170.876H281.322C286.644 170.876 290.737 169.736 293.603 167.455C296.527 165.116 297.989 161.87 297.989 157.718Z" fill="#46A7D9"/>
</g>
<defs>
<clipPath id="clip0_709_74">
<rect width="289.722" height="290.526" fill="white" transform="translate(105 105)"/>
</clipPath>
</defs>
</svg>
