<svg width="18" height="18" viewBox="0 0 18 18" fill="none" xmlns="http://www.w3.org/2000/svg">
<path d="M8.9983 0.138435C5.3673 0.138435 1.9193 -0.184565 0.602303 3.19544C0.0583026 4.59144 0.137303 6.40444 0.137303 9.00044C0.137303 11.2784 0.0643026 13.4194 0.602303 14.8044C1.9163 18.1864 5.3923 17.8624 8.9963 17.8624C12.4733 17.8624 16.0583 18.2244 17.3913 14.8044C17.9363 13.3944 17.8563 11.6084 17.8563 9.00044C17.8563 5.53844 18.0473 3.30343 16.3683 1.62543C14.6683 -0.0745652 12.3693 0.138435 8.9943 0.138435H8.9983ZM8.2043 1.73544C15.7783 1.72344 16.7423 0.881436 16.2103 12.5784C16.0213 16.7154 12.8713 16.2614 8.9993 16.2614C1.9393 16.2614 1.7363 16.0594 1.7363 8.99644C1.7363 1.85144 2.2963 1.73944 8.2043 1.73344V1.73544ZM13.7283 3.20643C13.1413 3.20643 12.6653 3.68243 12.6653 4.26943C12.6653 4.85643 13.1413 5.33244 13.7283 5.33244C14.3153 5.33244 14.7913 4.85643 14.7913 4.26943C14.7913 3.68243 14.3153 3.20643 13.7283 3.20643V3.20643ZM8.9983 4.44943C6.4853 4.44943 4.4483 6.48744 4.4483 9.00044C4.4483 11.5134 6.4853 13.5504 8.9983 13.5504C11.5113 13.5504 13.5473 11.5134 13.5473 9.00044C13.5473 6.48744 11.5113 4.44943 8.9983 4.44943V4.44943ZM8.9983 6.04643C12.9033 6.04643 12.9083 11.9544 8.9983 11.9544C5.0943 11.9544 5.0883 6.04643 8.9983 6.04643Z" fill="white"/>
</svg>
