<svg width="20" height="18" viewBox="0 0 20 18" fill="none" xmlns="http://www.w3.org/2000/svg">
<path d="M19.7094 4.97119C19.4057 4.76415 18.992 4.84239 18.7849 5.14595L17.4279 7.13562C17.0754 5.49316 16.2588 3.98395 15.0438 2.76898C13.3789 1.10408 11.1653 0.18718 8.81068 0.18718C6.45616 0.18718 4.2425 1.10408 2.5776 2.76898C-0.859362 6.20594 -0.859362 11.7983 2.5776 15.2351C4.29608 16.9536 6.55338 17.8129 8.81068 17.8129C11.068 17.8129 13.3253 16.9536 15.0438 15.2351C15.3036 14.9753 15.3036 14.554 15.0438 14.2942C14.7839 14.0344 14.3627 14.0344 14.1029 14.2942C11.1847 17.2123 6.43673 17.2123 3.51863 14.2942C0.60053 11.3761 0.60053 6.62793 3.51863 3.70983C4.93222 2.29634 6.81161 1.51782 8.81077 1.51782C10.8099 1.51782 12.6894 2.29634 14.1029 3.70992C15.194 4.80087 15.905 6.1717 16.1734 7.65989L13.8117 6.0491C13.5081 5.84206 13.0942 5.9203 12.8872 6.22386C12.6801 6.52742 12.7583 6.94134 13.0619 7.14839L16.5849 9.55127C16.5851 9.55135 16.5853 9.55153 16.5855 9.55171C16.6412 9.58968 16.7006 9.61762 16.7617 9.63669C16.7636 9.63731 16.7654 9.63829 16.7672 9.63882C16.7776 9.64202 16.7882 9.64326 16.7986 9.64592C16.8518 9.65923 16.9058 9.66739 16.9597 9.66739C17.1723 9.66739 17.3812 9.56572 17.51 9.37695L19.8842 5.89581C20.0912 5.59216 20.013 5.17824 19.7094 4.97119Z" fill="#52A7D8"/>
</svg>
