<svg width="35" height="55" viewBox="0 0 35 55" fill="none" xmlns="http://www.w3.org/2000/svg">
<g clip-path="url(#clip0_1448_11345)">
<path d="M33.1667 49.0268L28.4563 53.7807C28.3025 53.9376 28.1194 54.0622 27.9176 54.1472C27.7157 54.2322 27.4992 54.276 27.2805 54.276C27.0618 54.276 26.8453 54.2322 26.6435 54.1472C26.4417 54.0622 26.2585 53.9376 26.1047 53.7807L6.83171 34.3297C5.26999 34.2062 3.80563 33.5154 2.71023 32.3852C1.61483 31.255 0.962749 29.7622 0.874931 28.1837C0.787113 26.6053 1.26952 25.0482 2.23267 23.8014C3.19583 22.5545 4.57436 21.7025 6.11257 21.4035L26.1047 1.21936C26.2585 1.06246 26.4417 0.937907 26.6435 0.852899C26.8453 0.767891 27.0618 0.724121 27.2805 0.724121C27.4992 0.724121 27.7157 0.767891 27.9176 0.852899C28.1194 0.937907 28.3025 1.06246 28.4563 1.21936L33.1667 5.97326C33.3222 6.12849 33.4456 6.3133 33.5298 6.51699C33.614 6.72068 33.6574 6.9392 33.6574 7.15992C33.6574 7.38063 33.614 7.59916 33.5298 7.80284C33.4456 8.00653 33.3222 8.19134 33.1667 8.34658L14.1957 27.5L33.1667 46.6535C33.3222 46.8088 33.4456 46.9936 33.5298 47.1972C33.614 47.4009 33.6574 47.6195 33.6574 47.8402C33.6574 48.0609 33.614 48.2794 33.5298 48.4831C33.4456 48.6868 33.3222 48.8716 33.1667 49.0268Z" fill="white"/>
<path d="M33.1667 49.0268L28.4563 53.7807C28.3025 53.9376 28.1194 54.0622 27.9176 54.1472C27.7157 54.2322 27.4992 54.276 27.2805 54.276C27.0618 54.276 26.8453 54.2322 26.6435 54.1472C26.4417 54.0622 26.2585 53.9376 26.1047 53.7807V53.7807L6.83171 34.3297C5.26999 34.2062 3.80563 33.5154 2.71023 32.3852C1.61483 31.255 0.962749 29.7622 0.874931 28.1837C0.787113 26.6053 1.26952 25.0482 2.23267 23.8014C3.19583 22.5545 4.57436 21.7025 6.11257 21.4035L26.1047 1.21936C26.2585 1.06246 26.4417 0.937907 26.6435 0.852899C26.8453 0.767891 27.0618 0.724121 27.2805 0.724121C27.4992 0.724121 27.7157 0.767891 27.9176 0.852899C28.1194 0.937907 28.3025 1.06246 28.4563 1.21936L33.1667 5.97326C33.3222 6.12849 33.4456 6.3133 33.5298 6.51699C33.614 6.72068 33.6574 6.9392 33.6574 7.15992C33.6574 7.38063 33.614 7.59916 33.5298 7.80284C33.4456 8.00653 33.3222 8.19134 33.1667 8.34658L14.1957 27.5L33.1667 46.6535C33.3222 46.8088 33.4456 46.9936 33.5298 47.1972C33.614 47.4009 33.6574 47.6195 33.6574 47.8402C33.6574 48.0609 33.614 48.2794 33.5298 48.4831C33.4456 48.6868 33.3222 48.8716 33.1667 49.0268V49.0268Z" stroke="#90C336" stroke-width="2" stroke-linecap="round" stroke-linejoin="round"/>
<path d="M7.30633 23.5155C8.40987 23.5612 9.45316 24.0357 10.218 24.8399C10.9828 25.6441 11.4098 26.7156 11.4098 27.8303C11.4098 28.9449 10.9828 30.0164 10.218 30.8206C9.45316 31.6248 8.40987 32.0994 7.30633 32.1451C6.73013 32.1689 6.15511 32.075 5.6158 31.8689C5.07648 31.6628 4.58401 31.3488 4.16797 30.9458C3.75192 30.5428 3.42089 30.059 3.19475 29.5237C2.96862 28.9883 2.85205 28.4123 2.85205 27.8303C2.85205 27.2483 2.96862 26.6723 3.19475 26.1369C3.42089 25.6015 3.75192 25.1177 4.16797 24.7147C4.58401 24.3117 5.07648 23.9977 5.6158 23.7916C6.15511 23.5856 6.73013 23.4916 7.30633 23.5155ZM13.3399 25.5041C12.9764 24.5515 12.3968 23.6981 11.6474 23.0125C10.8981 22.3268 9.99996 21.8279 9.02508 21.5558L27.2481 3.19348L31.3473 7.33046L13.3399 25.5041ZM31.3185 47.6696L27.2194 51.8066L9.55005 33.9377C10.4932 33.5844 11.3417 33.0141 12.0283 32.2721C12.7148 31.53 13.2206 30.6366 13.5053 29.6629L31.3185 47.6696Z" fill="#90C336"/>
</g>
<defs>
<clipPath id="clip0_1448_11345">
<rect width="34.375" height="55" fill="white"/>
</clipPath>
</defs>
</svg>
