<svg width="500" height="500" viewBox="0 0 500 500" fill="none" xmlns="http://www.w3.org/2000/svg">
<g clip-path="url(#clip0_709_128)">
<path d="M353.504 355.116H343.691V212.64C343.691 206.008 338.296 200.613 331.665 200.613H309.732C303.1 200.613 297.705 206.009 297.705 212.64V355.116H272.79V277.193C272.79 270.561 267.395 265.166 260.763 265.166H238.83C232.199 265.166 226.804 270.562 226.804 277.193V355.116H201.888V314.76C201.888 308.129 196.492 302.734 189.861 302.734H167.928C161.297 302.734 155.902 308.129 155.902 314.76V355.116H145.56C143.089 355.116 141.086 357.119 141.086 359.59C141.086 362.061 143.089 364.064 145.56 364.064H353.504C355.975 364.064 357.978 362.061 357.978 359.59C357.978 357.119 355.975 355.116 353.504 355.116ZM192.939 355.116H164.849V314.76C164.849 313.062 166.23 311.681 167.928 311.681H189.86C191.558 311.681 192.939 313.062 192.939 314.76V355.116ZM263.841 355.116H235.751V277.193C235.751 275.495 237.132 274.114 238.83 274.114H260.763C262.46 274.114 263.841 275.495 263.841 277.193V355.116ZM334.744 355.116H306.653V212.64C306.653 210.942 308.034 209.561 309.732 209.561H331.665C333.363 209.561 334.744 210.942 334.744 212.64V355.116Z" fill="#46A7D9"/>
<path fill-rule="evenodd" clip-rule="evenodd" d="M296.362 212.64C296.362 205.267 302.358 199.27 309.732 199.27H331.664C339.038 199.27 345.035 205.266 345.035 212.64V353.773H353.504C356.716 353.773 359.321 356.377 359.321 359.59C359.321 362.803 356.716 365.407 353.504 365.407H145.56C142.347 365.407 139.742 362.803 139.742 359.59C139.742 356.377 142.347 353.773 145.56 353.773H154.558V314.76C154.558 307.387 160.554 301.39 167.928 301.39H189.861C197.234 301.39 203.231 307.386 203.231 314.76V353.773H225.46V277.193C225.46 269.819 231.456 263.822 238.83 263.822H260.763C268.136 263.822 274.133 269.819 274.133 277.193V353.773H296.362V212.64ZM309.732 201.956C303.842 201.956 299.049 206.75 299.049 212.64V356.459H271.446V277.193C271.446 271.303 266.652 266.509 260.763 266.509H238.83C232.941 266.509 228.147 271.303 228.147 277.193V356.459H200.544V314.76C200.544 308.87 195.75 304.077 189.861 304.077H167.928C162.038 304.077 157.245 308.871 157.245 314.76V356.459H145.56C143.831 356.459 142.429 357.861 142.429 359.59C142.429 361.319 143.831 362.72 145.56 362.72H353.504C355.233 362.72 356.634 361.319 356.634 359.59C356.634 357.861 355.233 356.459 353.504 356.459H342.348V212.64C342.348 206.75 337.554 201.956 331.664 201.956H309.732ZM309.732 210.904C308.776 210.904 307.996 211.684 307.996 212.64V353.773H333.4V212.64C333.4 211.684 332.62 210.904 331.664 210.904H309.732ZM305.309 212.64C305.309 210.2 307.292 208.217 309.732 208.217H331.664C334.104 208.217 336.087 210.2 336.087 212.64V356.459H305.309V212.64ZM238.83 275.457C237.874 275.457 237.094 276.237 237.094 277.193V353.773H262.498V277.193C262.498 276.237 261.718 275.457 260.762 275.457H238.83ZM234.407 277.193C234.407 274.753 236.39 272.77 238.83 272.77H260.762C263.202 272.77 265.185 274.753 265.185 277.193V356.459H234.407V277.193ZM167.927 313.025C166.972 313.025 166.192 313.804 166.192 314.76V353.773H191.596V314.76C191.596 313.804 190.816 313.025 189.86 313.025H167.927ZM163.505 314.76C163.505 312.32 165.488 310.338 167.927 310.338H189.86C192.3 310.338 194.283 312.32 194.283 314.76V356.459H163.505V314.76Z" fill="#46A7D9"/>
<path d="M343.68 139.705C343.742 138.484 343.313 137.242 342.381 136.31C341.448 135.378 340.207 134.948 338.986 135.011C338.914 135.008 338.843 135 338.769 135H311.702C309.232 135 307.229 137.003 307.229 139.474C307.229 141.945 309.232 143.948 311.702 143.948H328.415L284.188 188.175L267.51 171.497C266.671 170.658 265.533 170.186 264.346 170.186C263.16 170.186 262.022 170.658 261.183 171.497L180.757 251.923C179.01 253.67 179.01 256.503 180.757 258.251C181.63 259.124 182.775 259.56 183.92 259.56C185.065 259.56 186.21 259.124 187.084 258.25L264.346 180.987L281.025 197.665C282.772 199.412 285.605 199.412 287.352 197.665L334.743 150.275V165.401C334.743 167.872 336.746 169.875 339.217 169.875C341.688 169.875 343.691 167.872 343.691 165.401V139.921C343.691 139.848 343.683 139.777 343.68 139.705Z" fill="#46A7D9"/>
<path fill-rule="evenodd" clip-rule="evenodd" d="M305.885 139.474C305.885 136.261 308.489 133.656 311.702 133.656H338.769C338.85 133.656 338.92 133.66 338.963 133.663C338.976 133.664 338.987 133.665 338.995 133.665C340.551 133.606 342.136 134.165 343.33 135.36C344.525 136.555 345.084 138.139 345.025 139.695C345.025 139.703 345.026 139.714 345.027 139.727C345.03 139.77 345.034 139.84 345.034 139.921V165.401C345.034 168.614 342.429 171.218 339.216 171.218C336.003 171.218 333.399 168.614 333.399 165.401V153.518L288.302 198.615C286.03 200.887 282.346 200.887 280.074 198.615L264.346 182.886L188.033 259.199C186.898 260.336 185.406 260.903 183.92 260.903C182.433 260.903 180.942 260.336 179.807 259.201L179.806 259.2C177.535 256.928 177.535 253.245 179.806 250.973L260.232 170.547C261.323 169.456 262.803 168.843 264.346 168.843C265.889 168.843 267.369 169.456 268.459 170.547L284.188 186.275L325.172 145.291H311.702C308.489 145.291 305.885 142.686 305.885 139.474ZM311.702 136.343C309.973 136.343 308.572 137.745 308.572 139.474C308.572 141.203 309.973 142.604 311.702 142.604H331.659L284.188 190.075L266.559 172.447C265.972 171.86 265.176 171.53 264.346 171.53C263.516 171.53 262.719 171.86 262.132 172.447L181.706 252.873C180.484 254.095 180.484 256.078 181.706 257.301C182.318 257.911 183.117 258.217 183.92 258.217C184.723 258.217 185.522 257.911 186.133 257.3L264.346 179.087L281.974 196.715C283.197 197.937 285.179 197.938 286.402 196.715L336.086 147.031V165.401C336.086 167.13 337.487 168.531 339.216 168.531C340.945 168.531 342.347 167.13 342.347 165.401V139.924C342.347 139.922 342.346 139.914 342.345 139.898L342.342 139.845C342.34 139.822 342.339 139.794 342.337 139.762L342.335 139.699L342.338 139.636C342.382 138.774 342.08 137.909 341.43 137.26C340.781 136.61 339.915 136.308 339.055 136.352L338.991 136.355L338.927 136.353C338.896 136.351 338.867 136.35 338.845 136.348L338.792 136.345C338.776 136.344 338.768 136.343 338.766 136.343H311.702Z" fill="#46A7D9"/>
<path d="M168.841 275.17C171.312 275.17 173.315 273.167 173.315 270.697C173.315 268.226 171.312 266.223 168.841 266.223C166.37 266.223 164.367 268.226 164.367 270.697C164.367 273.167 166.37 275.17 168.841 275.17Z" fill="#46A7D9"/>
<path fill-rule="evenodd" clip-rule="evenodd" d="M168.841 267.566C167.112 267.566 165.71 268.967 165.71 270.696C165.71 272.425 167.112 273.827 168.841 273.827C170.57 273.827 171.971 272.425 171.971 270.696C171.971 268.967 170.57 267.566 168.841 267.566ZM163.023 270.696C163.023 267.483 165.628 264.879 168.841 264.879C172.054 264.879 174.658 267.483 174.658 270.696C174.658 273.909 172.054 276.514 168.841 276.514C165.628 276.514 163.023 273.909 163.023 270.696Z" fill="#46A7D9"/>
</g>
<defs>
<clipPath id="clip0_709_128">
<rect width="229.062" height="229.062" fill="white" transform="translate(135 135)"/>
</clipPath>
</defs>
</svg>
