<svg width="75" height="66" viewBox="0 0 75 66" fill="none" xmlns="http://www.w3.org/2000/svg">
<path d="M67.1566 0.246095C66.7402 -0.116623 66.1085 -0.0730393 65.7458 0.343441L59.835 7.13036C59.4723 7.54684 59.5158 8.17851 59.9323 8.54122C60.3488 8.90394 60.9805 8.86036 61.3432 8.44388L66.5972 2.41106L72.6301 7.66511C73.0465 8.02783 73.6782 7.98424 74.0409 7.56776C74.4036 7.15128 74.36 6.51962 73.9436 6.1569L67.1566 0.246095ZM0.117698 63.8604C29.7356 68.5591 47.565 64.6966 57.4936 53.4116C67.3607 42.1964 69.0882 23.985 67.4975 0.931362L65.5023 1.06903C67.0945 24.1452 65.2586 41.5579 55.992 52.0905C46.7869 62.5532 29.9121 66.5621 0.431062 61.8851L0.117698 63.8604Z" fill="#52A7D8"/>
</svg>
