<svg width="12" height="13" viewBox="0 0 12 13" fill="none" xmlns="http://www.w3.org/2000/svg">
<path d="M11.9686 5.10264C11.8896 4.85966 11.6741 4.68763 11.4201 4.66465L7.95607 4.35016L6.58706 1.14503C6.48599 0.909548 6.256 0.757568 6.00002 0.757568C5.74403 0.757568 5.51395 0.909548 5.41352 1.14503L4.04451 4.35016L0.579912 4.66465C0.32594 4.68808 0.110879 4.86012 0.0314104 5.10264C-0.047601 5.34563 0.0253678 5.61214 0.217449 5.7806L2.83599 8.07669L2.06392 11.4772C2.00743 11.7272 2.10447 11.9858 2.31194 12.1357C2.42345 12.2168 2.55446 12.2572 2.68593 12.2572C2.79891 12.2572 2.91198 12.2272 3.01297 12.1668L6.00002 10.3807L8.98652 12.1668C9.2056 12.2977 9.48109 12.2857 9.6881 12.1357C9.89556 11.9858 9.99261 11.7272 9.93612 11.4772L9.16404 8.07669L11.7826 5.7806C11.9746 5.61214 12.0476 5.34618 11.9686 5.10264Z" fill="white"/>
</svg>
