<svg width="500" height="500" viewBox="0 0 500 500" fill="none" xmlns="http://www.w3.org/2000/svg">
<g clip-path="url(#clip0_709_73)">
<path d="M302.734 100C299.499 100 296.875 102.624 296.875 105.859V132.812C296.875 136.048 299.499 138.672 302.734 138.672C305.97 138.672 308.594 136.048 308.594 132.812V105.859C308.594 102.624 305.97 100 302.734 100Z" fill="#46A7D9"/>
<path d="M167.969 282.812C164.734 282.812 162.109 285.438 162.109 288.672C162.109 291.906 164.734 294.531 167.969 294.531C171.203 294.531 173.828 291.906 173.828 288.672C173.828 285.438 171.203 282.812 167.969 282.812Z" fill="#46A7D9"/>
<path d="M384.766 271.096C384.766 258.172 374.252 247.658 361.328 247.658H317.587C324.358 230.313 327.099 209.896 326.571 191.722C326.47 188.254 326.337 186.248 326.157 184.986C325.854 172.325 315.459 162.111 302.734 162.111C289.811 162.111 279.297 172.625 279.297 185.549V191.408C279.297 228.466 231.711 249.288 195.798 258.216C193.083 252.009 186.885 247.658 179.688 247.658H121.094C117.858 247.658 115.234 250.282 115.234 253.518V394.142C115.234 397.378 117.858 400.002 121.094 400.002H179.688C186.837 400.002 192.999 395.709 195.743 389.567C198.716 390.33 201.477 391.05 204.025 391.716C224.483 397.059 235.752 400.002 263.16 400.002H326.172C339.095 400.002 349.609 389.488 349.609 376.564C349.609 371.746 348.146 367.263 345.643 363.534C354.694 360.368 361.328 351.72 361.328 341.408C361.328 336.607 359.901 332.11 357.405 328.364C366.416 325.193 373.047 316.564 373.047 306.252C373.047 301.433 371.584 296.951 369.08 293.222C378.132 290.056 384.766 281.408 384.766 271.096ZM185.547 382.424C185.547 385.655 182.918 388.283 179.688 388.283H126.953V259.377H179.688C182.918 259.377 185.547 262.005 185.547 265.236V382.424ZM361.328 282.814C348.76 282.814 345.764 282.814 332.031 282.814C328.796 282.814 326.172 285.438 326.172 288.674C326.172 291.909 328.796 294.533 332.031 294.533H349.609C356.071 294.533 361.328 299.79 361.328 306.252C361.328 312.724 356.082 317.971 349.609 317.971H320.312C317.077 317.971 314.453 320.594 314.453 323.83C314.453 327.066 317.077 329.689 320.312 329.689H337.891C344.276 329.689 349.609 334.79 349.609 341.408C349.609 347.88 344.363 353.127 337.891 353.127C325.323 353.127 322.327 353.127 308.594 353.127C305.358 353.127 302.734 355.751 302.734 358.986C302.734 362.222 305.358 364.846 308.594 364.846H326.172C332.634 364.846 337.891 370.103 337.891 376.564C337.891 383.026 332.634 388.283 326.172 388.283H263.16C237.258 388.283 227.141 385.641 206.986 380.378C204.034 379.607 200.795 378.761 197.266 377.861V269.938C239.669 259.838 291.016 235.184 291.016 191.408V185.549C291.016 179.087 296.273 173.83 302.734 173.83C309.184 173.83 314.441 179.079 314.453 185.531V185.549C314.453 188.095 317.631 219.347 304.887 247.658H285.156C281.921 247.658 279.297 250.282 279.297 253.518C279.297 256.753 281.921 259.377 285.156 259.377C289.248 259.377 354.65 259.377 361.328 259.377C367.79 259.377 373.047 264.634 373.047 271.096C373.047 277.568 367.8 282.814 361.328 282.814Z" fill="#46A7D9"/>
<path d="M167.969 306.25C164.733 306.25 162.109 308.874 162.109 312.109V358.984C162.109 362.22 164.733 364.844 167.969 364.844C171.204 364.844 173.828 362.22 173.828 358.984V312.109C173.828 308.874 171.204 306.25 167.969 306.25Z" fill="#46A7D9"/>
<path d="M255.859 173.828H232.422C229.186 173.828 226.562 176.452 226.562 179.688C226.562 182.923 229.186 185.547 232.422 185.547H255.859C259.095 185.547 261.719 182.923 261.719 179.688C261.719 176.452 259.095 173.828 255.859 173.828Z" fill="#46A7D9"/>
<path d="M373.047 173.828H349.609C346.374 173.828 343.75 176.452 343.75 179.688C343.75 182.923 346.374 185.547 349.609 185.547H373.047C376.282 185.547 378.906 182.923 378.906 179.688C378.906 176.452 376.282 173.828 373.047 173.828Z" fill="#46A7D9"/>
<path d="M356.594 125.827C354.306 123.539 350.597 123.539 348.307 125.827L331.738 142.397C329.449 144.685 329.449 148.395 331.738 150.684C334.027 152.972 337.735 152.971 340.024 150.684L356.594 134.114C358.882 131.826 358.882 128.116 356.594 125.827Z" fill="#46A7D9"/>
<path d="M273.731 142.397L257.161 125.827C254.873 123.539 251.164 123.539 248.874 125.827C246.586 128.115 246.586 131.825 248.874 134.114L265.444 150.684C267.734 152.972 271.442 152.971 273.731 150.684C276.019 148.396 276.019 144.685 273.731 142.397Z" fill="#46A7D9"/>
</g>
<defs>
<clipPath id="clip0_709_73">
<rect width="300" height="300" fill="white" transform="translate(100 100)"/>
</clipPath>
</defs>
</svg>
