<svg width="16" height="12" viewBox="0 0 16 12" fill="none" xmlns="http://www.w3.org/2000/svg">
<path d="M14.5372 0.204303L14.289 0.294303L0.818996 5.14748C0.72354 5.177 0.640577 5.23735 0.583109 5.31909C0.525641 5.40082 0.496917 5.49931 0.501439 5.59913C0.505962 5.69894 0.543476 5.79443 0.6081 5.87063C0.672725 5.94684 0.760808 5.99944 0.858542 6.02021L4.34536 6.97475L4.99581 8.88384L5.64627 10.7929C5.68363 10.8865 5.74328 10.9696 5.82003 11.0349C5.89677 11.1002 5.9883 11.1458 6.08666 11.1677C6.18502 11.1896 6.28725 11.1871 6.38445 11.1606C6.48166 11.134 6.57091 11.0841 6.64445 11.0152L8.44581 9.31338L11.9831 11.712C12.4154 12.0066 13.0317 11.7884 13.1422 11.3029L15.4849 0.951575C15.5995 0.438848 15.0595 0.0174851 14.5372 0.204303ZM12.8176 2.50203L6.73172 7.47657L6.44536 7.71111C6.38245 7.76099 6.34138 7.83335 6.33081 7.91293L6.26672 8.44202L6.09081 9.92838C6.09226 9.94646 6.08647 9.96438 6.0747 9.97819C6.06294 9.992 6.04617 10.0006 6.02809 10.002C6.01 10.0035 5.99209 9.99767 5.97828 9.9859C5.96447 9.97414 5.9559 9.95737 5.95445 9.93929L5.45945 8.45429L4.94809 6.93384C4.92646 6.8655 4.92933 6.79175 4.95621 6.7253C4.98309 6.65884 5.0323 6.60384 5.09536 6.56975L11.4281 2.93975L12.6199 2.25794C12.7931 2.15703 12.9704 2.37657 12.8176 2.50203Z" fill="white"/>
</svg>
