<svg width="16" height="16" viewBox="0 0 16 16" fill="none" xmlns="http://www.w3.org/2000/svg">
<path d="M8 16C12.4183 16 16 12.4183 16 8C16 3.58172 12.4183 0 8 0C3.58172 0 0 3.58172 0 8C0 12.4183 3.58172 16 8 16Z" fill="#86B92D"/>
<path d="M11.5273 4.47268C10.6949 3.63204 9.58959 3.11651 8.41063 3.01906C7.23167 2.92162 6.05669 3.24869 5.09763 3.94126C4.13858 4.63384 3.45858 5.64634 3.1803 6.79613C2.90201 7.94592 3.04377 9.1573 3.57998 10.2118L3.05362 12.7672C3.04816 12.7927 3.048 12.819 3.05317 12.8445C3.05833 12.87 3.06869 12.8941 3.08362 12.9154C3.10548 12.9478 3.13669 12.9727 3.17308 12.9868C3.20947 13.0009 3.2493 13.0036 3.28726 12.9945L5.7918 12.4009C6.84332 12.9235 8.04615 13.0562 9.18628 12.7752C10.3264 12.4942 11.3299 11.8179 12.0181 10.8665C12.7064 9.91509 13.0348 8.75038 12.9449 7.57959C12.855 6.40879 12.3527 5.30786 11.5273 4.47268V4.47268ZM10.7464 10.7054C10.1705 11.2797 9.42889 11.6588 8.62614 11.7893C7.82338 11.9197 6.99992 11.795 6.2718 11.4327L5.92271 11.26L4.38726 11.6236L4.3918 11.6045L4.70999 10.0591L4.53908 9.72178C4.16704 8.99112 4.0358 8.16145 4.16415 7.35163C4.29251 6.54182 4.67388 5.7934 5.25362 5.21359C5.98208 4.48536 6.96995 4.07626 7.99999 4.07626C9.03003 4.07626 10.0179 4.48536 10.7464 5.21359C10.7526 5.22071 10.7592 5.22739 10.7664 5.23359C11.4858 5.9637 11.8874 6.94862 11.8837 7.97363C11.8799 8.99863 11.4711 9.98059 10.7464 10.7054V10.7054Z" fill="white"/>
<path d="M10.61 9.57175C10.4218 9.86811 10.1245 10.2308 9.75087 10.3208C9.09632 10.479 8.09178 10.3263 6.84178 9.16084L6.82632 9.1472C5.72723 8.12812 5.44178 7.27994 5.51087 6.60721C5.54905 6.2254 5.86723 5.87994 6.13541 5.65449C6.17781 5.6183 6.22809 5.59254 6.28223 5.57926C6.33636 5.56598 6.39286 5.56555 6.44719 5.578C6.50152 5.59046 6.55218 5.61546 6.59513 5.651C6.63807 5.68653 6.6721 5.73163 6.6945 5.78267L7.09905 6.69176C7.12534 6.7507 7.13508 6.81569 7.12723 6.87976C7.11939 6.94382 7.09424 7.00454 7.0545 7.05539L6.84996 7.32085C6.80607 7.37566 6.77959 7.44235 6.77392 7.51234C6.76825 7.58233 6.78365 7.65241 6.81814 7.71357C6.93269 7.91448 7.20723 8.20993 7.51178 8.48357C7.8536 8.79266 8.23269 9.07539 8.47269 9.17175C8.53691 9.19799 8.60751 9.20439 8.6754 9.19013C8.74329 9.17587 8.80536 9.1416 8.8536 9.09175L9.09087 8.85266C9.13665 8.80751 9.19359 8.77532 9.25587 8.75935C9.31815 8.74338 9.38356 8.74421 9.44541 8.76175L10.4063 9.03448C10.4593 9.05074 10.5079 9.0789 10.5484 9.11682C10.5888 9.15474 10.6201 9.2014 10.6397 9.25324C10.6594 9.30509 10.6669 9.36074 10.6617 9.41594C10.6566 9.47115 10.6389 9.52444 10.61 9.57175V9.57175Z" fill="white"/>
</svg>
