<svg width="16" height="16" viewBox="0 0 16 16" fill="none" xmlns="http://www.w3.org/2000/svg">
<path d="M13.2908 2.70865C12.0423 1.4477 10.3843 0.674392 8.61585 0.528228C6.8474 0.382064 5.08493 0.872661 3.64635 1.91153C2.20777 2.95039 1.18778 4.46914 0.770353 6.19382C0.35293 7.9185 0.565558 9.73557 1.36988 11.3173L0.580338 15.1505C0.572146 15.1886 0.571913 15.2281 0.579656 15.2663C0.587399 15.3045 0.602951 15.3408 0.625338 15.3727C0.658133 15.4212 0.704947 15.4586 0.759526 15.4798C0.814106 15.501 0.873855 15.505 0.930792 15.4914L4.68761 14.6009C6.26488 15.3849 8.06913 15.5838 9.77932 15.1624C11.4895 14.7409 12.9947 13.7264 14.0271 12.2993C15.0595 10.8723 15.5521 9.12519 15.4173 7.369C15.2824 5.61281 14.5289 3.96142 13.2908 2.70865ZM12.1194 12.0577C11.2556 12.9191 10.1432 13.4878 8.93911 13.6835C7.73498 13.8792 6.49979 13.6921 5.40761 13.1487L4.88398 12.8896L2.58079 13.435L2.58761 13.4064L3.06488 11.0882L2.80852 10.5823C2.25047 9.4863 2.0536 8.2418 2.24614 7.02707C2.43867 5.81235 3.01072 4.68972 3.88034 3.82002C4.97303 2.72767 6.45483 2.11402 7.99988 2.11402C9.54494 2.11402 11.0267 2.72767 12.1194 3.82002C12.1287 3.83069 12.1388 3.84071 12.1494 3.85002C13.2286 4.94518 13.831 6.42256 13.8254 7.96006C13.8198 9.49756 13.2066 10.9705 12.1194 12.0577Z" fill="white"/>
<path d="M11.9147 10.3577C11.6324 10.8023 11.1865 11.3464 10.626 11.4814C9.64421 11.7186 8.13739 11.4895 6.26239 9.74135L6.23921 9.7209C4.59057 8.19226 4.16239 6.91998 4.26603 5.91089C4.3233 5.33816 4.80057 4.81998 5.20285 4.4818C5.26644 4.42752 5.34186 4.38887 5.42307 4.36895C5.50427 4.34903 5.58901 4.34838 5.67051 4.36707C5.75201 4.38575 5.828 4.42325 5.89242 4.47656C5.95683 4.52986 6.00788 4.5975 6.04148 4.67407L6.6483 6.03771C6.68773 6.12613 6.70235 6.22361 6.69058 6.31971C6.6788 6.4158 6.64109 6.50688 6.58148 6.58316L6.27466 6.98135C6.20883 7.06356 6.1691 7.1636 6.1606 7.26858C6.15209 7.37357 6.1752 7.47869 6.22694 7.57044C6.39876 7.8718 6.81057 8.31498 7.26739 8.72544C7.78012 9.18908 8.34876 9.61317 8.70876 9.75771C8.80508 9.79707 8.91099 9.80667 9.01283 9.78528C9.11467 9.7639 9.20776 9.7125 9.28012 9.63771L9.63603 9.27908C9.7047 9.21136 9.79011 9.16306 9.88353 9.13911C9.97695 9.11515 10.0751 9.1164 10.1678 9.14271L11.6092 9.55181C11.6887 9.57619 11.7616 9.61844 11.8223 9.67532C11.883 9.73219 11.9298 9.80219 11.9593 9.87996C11.9888 9.95773 12.0001 10.0412 11.9923 10.124C11.9846 10.2068 11.958 10.2868 11.9147 10.3577Z" fill="white"/>
</svg>
