<svg width="16" height="12" viewBox="0 0 16 12" fill="none" xmlns="http://www.w3.org/2000/svg">
<path d="M15.1499 2.39181C14.8499 1.46863 13.8572 0.909535 12.9435 0.781353C9.65731 0.432257 6.34336 0.432257 3.05715 0.781353C2.14352 0.909535 1.14806 1.46317 0.850789 2.39181C0.38307 4.77499 0.38307 7.22637 0.850789 9.60955C1.15079 10.5314 2.14352 11.0918 3.05715 11.22C6.34336 11.5691 9.65731 11.5691 12.9435 11.22C13.8572 11.0918 14.8526 10.5382 15.1499 9.60955C15.6176 7.22637 15.6176 4.77499 15.1499 2.39181ZM6.20579 8.87455V3.12545L10.8858 6C9.30806 6.96954 7.7767 7.90909 6.20579 8.87455Z" fill="white"/>
</svg>
